<svg width="398" height="351" viewBox="0 0 398 351" fill="none" xmlns="http://www.w3.org/2000/svg">
<rect x="32.0002" width="366" height="238" fill="#F8F8FE"/>
<path d="M73.0002 227C69.5859 227 66.2049 226.327 63.0505 225.021C59.896 223.714 57.0298 221.799 54.6155 219.385C52.2011 216.97 50.286 214.104 48.9794 210.95C47.6727 207.795 47.0002 204.414 47.0002 201L73.0002 201L73.0002 227Z" fill="#FF7F5C"/>
<g filter="url(#filter0_dddddd_1_884)">
<rect x="59.0002" y="60.166" width="53.2174" height="159.047" rx="26.6087" fill="white"/>
<rect x="59.3026" y="60.4684" width="52.6126" height="158.443" rx="26.3063" stroke="#E2E2E2" stroke-width="0.604743"/>
</g>
<path d="M79.0817 193.95C80.1044 193.95 80.9469 194.271 81.6093 194.914C82.2716 195.547 82.6028 196.37 82.6028 197.383C82.6028 198.396 82.2716 199.224 81.6093 199.867C80.9469 200.51 80.1044 200.831 79.0817 200.831C78.0492 200.831 77.2018 200.51 76.5395 199.867C75.8869 199.224 75.5606 198.396 75.5606 197.383C75.5606 196.594 75.7651 195.912 76.1742 195.338L79.4615 190.414H81.0102L78.5995 193.979C78.8138 193.96 78.9745 193.95 79.0817 193.95ZM77.5038 198.947C77.9128 199.336 78.4388 199.531 79.0817 199.531C79.7245 199.531 80.2456 199.336 80.645 198.947C81.0541 198.547 81.2586 198.026 81.2586 197.383C81.2586 196.74 81.0541 196.224 80.645 195.835C80.2456 195.445 79.7245 195.25 79.0817 195.25C78.4291 195.25 77.9031 195.445 77.5038 195.835C77.1044 196.224 76.9047 196.74 76.9047 197.383C76.9047 198.026 77.1044 198.547 77.5038 198.947ZM89.5798 193.658C89.5798 194.447 89.3704 195.133 88.9515 195.718H88.9662L85.6642 200.641H84.1301L86.5554 197.062C86.3412 197.081 86.1756 197.091 86.0587 197.091C85.0262 197.091 84.1788 196.774 83.5165 196.141C82.8639 195.499 82.5376 194.671 82.5376 193.658C82.5376 192.645 82.8639 191.822 83.5165 191.188C84.1788 190.546 85.0262 190.224 86.0587 190.224C87.0912 190.224 87.9337 190.546 88.5863 191.188C89.2486 191.822 89.5798 192.645 89.5798 193.658ZM84.4808 192.109C84.0814 192.499 83.8817 193.015 83.8817 193.658C83.8817 194.3 84.0814 194.822 84.4808 195.221C84.8899 195.611 85.4158 195.805 86.0587 195.805C86.7015 195.805 87.2227 195.611 87.622 195.221C88.0311 194.822 88.2356 194.3 88.2356 193.658C88.2356 193.015 88.036 192.499 87.6366 192.109C87.2373 191.719 86.7113 191.524 86.0587 191.524C85.4158 191.524 84.8899 191.719 84.4808 192.109Z" fill="#0B1018"/>
<path d="M84.0528 88.1621C84.1806 87.8953 84.364 87.6841 84.603 87.5285C84.842 87.3673 85.117 87.2868 85.4283 87.2868C85.8951 87.2868 86.2869 87.4507 86.6037 87.7786C86.9205 88.1065 87.0789 88.5066 87.0789 88.979V91.4966H81.2435V89.1624C81.2435 88.7067 81.3963 88.3205 81.7019 88.0037C82.0076 87.6869 82.3855 87.5285 82.8357 87.5285C83.3525 87.5285 83.7582 87.7397 84.0528 88.1621ZM81.9687 89.1624V90.7213H83.7527V89.1624C83.7527 88.9179 83.6665 88.7123 83.4943 88.5455C83.322 88.3788 83.1108 88.2955 82.8607 88.2955C82.6162 88.2955 82.4078 88.3816 82.2355 88.5539C82.0576 88.7206 81.9687 88.9235 81.9687 89.1624ZM86.3536 88.979C86.3536 88.7178 86.2619 88.4983 86.0785 88.3205C85.8951 88.1426 85.67 88.0537 85.4033 88.0537C85.1421 88.0537 84.9198 88.1454 84.7364 88.3288C84.553 88.5066 84.4613 88.7234 84.4613 88.979V90.7213H86.3536V88.979ZM81.2435 82.796H81.977V84.5216H87.0789V85.2885H81.977V87.0058H81.2435V82.796ZM87.1872 79.6198C87.1872 80.5035 86.8955 81.2343 86.3119 81.8123C85.7284 82.3847 85.0115 82.6709 84.1612 82.6709C83.3109 82.6709 82.5939 82.3847 82.0104 81.8123C81.4269 81.2343 81.1351 80.5035 81.1351 79.6198C81.1351 79.0863 81.2629 78.5973 81.5185 78.1527C81.7742 77.7025 82.1188 77.3524 82.5522 77.1023L82.9441 77.7775C82.6217 77.9443 82.3661 78.1943 82.1771 78.5278C81.9826 78.8557 81.8853 79.2197 81.8853 79.6198C81.8853 80.2923 82.1021 80.8425 82.5356 81.2704C82.9691 81.6928 83.5109 81.904 84.1612 81.904C84.8058 81.904 85.3449 81.6928 85.7784 81.2704C86.2119 80.8425 86.4286 80.2923 86.4286 79.6198C86.4286 79.2197 86.3341 78.8557 86.1452 78.5278C85.9507 78.1943 85.695 77.9443 85.3783 77.7775L85.7617 77.1023C86.1952 77.3468 86.5426 77.6942 86.8038 78.1443C87.0594 78.5945 87.1872 79.0863 87.1872 79.6198Z" fill="#0B1018"/>
<path d="M93.8883 196.742C93.6364 196.742 93.4271 196.659 93.2603 196.492C93.0936 196.326 93.0103 196.122 93.0103 195.881C93.0103 195.644 93.0936 195.442 93.2603 195.275C93.4308 195.105 93.6401 195.02 93.8883 195.02C94.1403 195.02 94.3496 195.103 94.5163 195.27C94.6831 195.436 94.7664 195.64 94.7664 195.881C94.7664 196.122 94.6831 196.326 94.5163 196.492C94.3533 196.659 94.144 196.742 93.8883 196.742ZM93.566 196.209C93.6512 196.294 93.7587 196.337 93.8883 196.337C94.018 196.337 94.1236 196.292 94.2051 196.203C94.2903 196.114 94.3329 196.007 94.3329 195.881C94.3329 195.755 94.2903 195.65 94.2051 195.564C94.1236 195.475 94.018 195.431 93.8883 195.431C93.7587 195.431 93.6512 195.475 93.566 195.564C93.4845 195.65 93.4437 195.755 93.4437 195.881C93.4437 196.011 93.4845 196.12 93.566 196.209ZM93.2715 198.432L95.8557 195.542L96.128 195.692L93.5382 198.588L93.2715 198.432ZM96.1947 198.799C96.028 198.966 95.8187 199.049 95.5667 199.049C95.3148 199.049 95.1054 198.966 94.9387 198.799C94.772 198.632 94.6886 198.428 94.6886 198.187C94.6886 197.947 94.772 197.743 94.9387 197.576C95.1054 197.409 95.3148 197.326 95.5667 197.326C95.8187 197.326 96.028 197.409 96.1947 197.576C96.3614 197.743 96.4448 197.947 96.4448 198.187C96.4448 198.428 96.3614 198.632 96.1947 198.799ZM95.2444 198.51C95.3296 198.595 95.437 198.638 95.5667 198.638C95.6964 198.638 95.802 198.595 95.8835 198.51C95.9687 198.421 96.0113 198.313 96.0113 198.187C96.0113 198.061 95.9687 197.956 95.8835 197.871C95.802 197.782 95.6964 197.737 95.5667 197.737C95.437 197.737 95.3296 197.782 95.2444 197.871C95.1629 197.956 95.1221 198.061 95.1221 198.187C95.1221 198.313 95.1629 198.421 95.2444 198.51Z" fill="#0B1018"/>
<g filter="url(#filter1_dddddd_1_884)">
<rect x="121.894" y="60.166" width="53.2174" height="159.047" rx="26.6087" fill="white"/>
<rect x="122.196" y="60.4684" width="52.6126" height="158.443" rx="26.3063" stroke="#E2E2E2" stroke-width="0.604743"/>
</g>
<path d="M144.006 195.352C144.503 195.606 144.892 195.947 145.175 196.375C145.457 196.804 145.598 197.291 145.598 197.836C145.598 198.771 145.272 199.507 144.62 200.042C143.967 200.568 143.124 200.831 142.092 200.831C141.069 200.831 140.232 200.568 139.579 200.042C138.926 199.507 138.6 198.771 138.6 197.836C138.6 197.291 138.741 196.804 139.024 196.375C139.306 195.947 139.696 195.606 140.193 195.352C139.355 194.826 138.936 194.081 138.936 193.117C138.936 192.192 139.243 191.481 139.857 190.984C140.48 190.477 141.225 190.224 142.092 190.224C142.969 190.224 143.714 190.477 144.327 190.984C144.951 191.481 145.262 192.192 145.262 193.117C145.262 194.081 144.844 194.826 144.006 195.352ZM142.092 191.524C141.576 191.524 141.142 191.661 140.792 191.934C140.451 192.206 140.28 192.611 140.28 193.146C140.28 193.662 140.456 194.067 140.806 194.359C141.157 194.641 141.585 194.783 142.092 194.783C142.598 194.783 143.027 194.641 143.378 194.359C143.728 194.067 143.904 193.662 143.904 193.146C143.904 192.611 143.733 192.206 143.392 191.934C143.051 191.661 142.618 191.524 142.092 191.524ZM142.092 199.531C142.745 199.531 143.266 199.38 143.655 199.078C144.055 198.766 144.254 198.323 144.254 197.749C144.254 197.184 144.055 196.75 143.655 196.448C143.266 196.136 142.745 195.981 142.092 195.981C141.449 195.981 140.928 196.136 140.529 196.448C140.139 196.75 139.944 197.184 139.944 197.749C139.944 198.323 140.139 198.766 140.529 199.078C140.928 199.38 141.449 199.531 142.092 199.531ZM146.39 200.641V199.531L149.998 195.849C150.963 194.885 151.445 194.057 151.445 193.365C151.445 192.791 151.27 192.343 150.919 192.021C150.568 191.7 150.14 191.539 149.633 191.539C148.669 191.539 147.968 191.997 147.529 192.912L146.39 192.24C146.711 191.578 147.154 191.076 147.719 190.736C148.294 190.395 148.927 190.224 149.619 190.224C150.476 190.224 151.221 190.507 151.854 191.072C152.487 191.637 152.804 192.396 152.804 193.351C152.804 194.383 152.195 195.508 150.977 196.726L148.362 199.326H152.994V200.641H146.39Z" fill="#0B1018"/>
<path d="M149.447 89.0481V86.5305H150.181V89.8234H144.345V89.0481H149.447ZM144.345 82.6125H145.079V84.3382H150.181V85.1051H145.079V86.8224H144.345V82.6125ZM150.289 79.4364C150.289 80.3201 149.997 81.0509 149.414 81.6289C148.83 82.2013 148.113 82.4875 147.263 82.4875C146.413 82.4875 145.696 82.2013 145.112 81.6289C144.529 81.0509 144.237 80.3201 144.237 79.4364C144.237 78.9029 144.365 78.4138 144.62 77.9692C144.876 77.5191 145.221 77.1689 145.654 76.9189L146.046 77.5941C145.724 77.7608 145.468 78.0109 145.279 78.3444C145.085 78.6723 144.987 79.0363 144.987 79.4364C144.987 80.1089 145.204 80.6591 145.638 81.087C146.071 81.5094 146.613 81.7206 147.263 81.7206C147.908 81.7206 148.447 81.5094 148.88 81.087C149.314 80.6591 149.531 80.1089 149.531 79.4364C149.531 79.0363 149.436 78.6723 149.247 78.3444C149.053 78.0109 148.797 77.7608 148.48 77.5941L148.864 76.9189C149.297 77.1634 149.644 77.5107 149.906 77.9609C150.161 78.4111 150.289 78.9029 150.289 79.4364Z" fill="#0B1018"/>
<path d="M156.782 196.742C156.53 196.742 156.321 196.659 156.154 196.492C155.987 196.326 155.904 196.122 155.904 195.881C155.904 195.644 155.987 195.442 156.154 195.275C156.324 195.105 156.534 195.02 156.782 195.02C157.034 195.02 157.243 195.103 157.41 195.27C157.577 195.436 157.66 195.64 157.66 195.881C157.66 196.122 157.577 196.326 157.41 196.492C157.247 196.659 157.038 196.742 156.782 196.742ZM156.46 196.209C156.545 196.294 156.652 196.337 156.782 196.337C156.912 196.337 157.017 196.292 157.099 196.203C157.184 196.114 157.227 196.007 157.227 195.881C157.227 195.755 157.184 195.65 157.099 195.564C157.017 195.475 156.912 195.431 156.782 195.431C156.652 195.431 156.545 195.475 156.46 195.564C156.378 195.65 156.337 195.755 156.337 195.881C156.337 196.011 156.378 196.12 156.46 196.209ZM156.165 198.432L158.749 195.542L159.022 195.692L156.432 198.588L156.165 198.432ZM159.088 198.799C158.922 198.966 158.712 199.049 158.46 199.049C158.208 199.049 157.999 198.966 157.832 198.799C157.666 198.632 157.582 198.428 157.582 198.187C157.582 197.947 157.666 197.743 157.832 197.576C157.999 197.409 158.208 197.326 158.46 197.326C158.712 197.326 158.922 197.409 159.088 197.576C159.255 197.743 159.338 197.947 159.338 198.187C159.338 198.428 159.255 198.632 159.088 198.799ZM158.138 198.51C158.223 198.595 158.331 198.638 158.46 198.638C158.59 198.638 158.696 198.595 158.777 198.51C158.862 198.421 158.905 198.313 158.905 198.187C158.905 198.061 158.862 197.956 158.777 197.871C158.696 197.782 158.59 197.737 158.46 197.737C158.331 197.737 158.223 197.782 158.138 197.871C158.056 197.956 158.016 198.061 158.016 198.187C158.016 198.313 158.056 198.421 158.138 198.51Z" fill="#0B1018"/>
<g filter="url(#filter2_dddddd_1_884)">
<rect x="184.787" y="60.166" width="53.2174" height="159.047" rx="26.6087" fill="#4F46BA"/>
</g>
<path d="M210.393 193.658C210.393 194.447 210.184 195.133 209.765 195.718H209.78L206.478 200.641H204.944L207.369 197.062C207.155 197.081 206.989 197.091 206.872 197.091C205.84 197.091 204.992 196.774 204.33 196.141C203.678 195.499 203.351 194.671 203.351 193.658C203.351 192.645 203.678 191.822 204.33 191.188C204.992 190.546 205.84 190.224 206.872 190.224C207.905 190.224 208.747 190.546 209.4 191.188C210.062 191.822 210.393 192.645 210.393 193.658ZM205.294 192.109C204.895 192.499 204.695 193.015 204.695 193.658C204.695 194.3 204.895 194.822 205.294 195.221C205.703 195.611 206.229 195.805 206.872 195.805C207.515 195.805 208.036 195.611 208.436 195.221C208.845 194.822 209.049 194.3 209.049 193.658C209.049 193.015 208.85 192.499 208.45 192.109C208.051 191.719 207.525 191.524 206.872 191.524C206.229 191.524 205.703 191.719 205.294 192.109ZM218.255 193.658C218.255 194.447 218.046 195.133 217.627 195.718H217.641L214.339 200.641H212.805L215.231 197.062C215.016 197.081 214.851 197.091 214.734 197.091C213.701 197.091 212.854 196.774 212.192 196.141C211.539 195.499 211.213 194.671 211.213 193.658C211.213 192.645 211.539 191.822 212.192 191.188C212.854 190.546 213.701 190.224 214.734 190.224C215.766 190.224 216.609 190.546 217.262 191.188C217.924 191.822 218.255 192.645 218.255 193.658ZM213.156 192.109C212.757 192.499 212.557 193.015 212.557 193.658C212.557 194.3 212.757 194.822 213.156 195.221C213.565 195.611 214.091 195.805 214.734 195.805C215.377 195.805 215.898 195.611 216.297 195.221C216.706 194.822 216.911 194.3 216.911 193.658C216.911 193.015 216.711 192.499 216.312 192.109C215.913 191.719 215.387 191.524 214.734 191.524C214.091 191.524 213.565 191.719 213.156 192.109Z" fill="white"/>
<path d="M221.679 196.742C221.427 196.742 221.218 196.659 221.051 196.492C220.884 196.326 220.801 196.122 220.801 195.881C220.801 195.644 220.884 195.442 221.051 195.275C221.222 195.105 221.431 195.02 221.679 195.02C221.931 195.02 222.14 195.103 222.307 195.27C222.474 195.436 222.557 195.64 222.557 195.881C222.557 196.122 222.474 196.326 222.307 196.492C222.144 196.659 221.935 196.742 221.679 196.742ZM221.357 196.209C221.442 196.294 221.549 196.337 221.679 196.337C221.809 196.337 221.914 196.292 221.996 196.203C222.081 196.114 222.124 196.007 222.124 195.881C222.124 195.755 222.081 195.65 221.996 195.564C221.914 195.475 221.809 195.431 221.679 195.431C221.549 195.431 221.442 195.475 221.357 195.564C221.275 195.65 221.235 195.755 221.235 195.881C221.235 196.011 221.275 196.12 221.357 196.209ZM221.062 198.432L223.646 195.542L223.919 195.692L221.329 198.588L221.062 198.432ZM223.985 198.799C223.819 198.966 223.609 199.049 223.357 199.049C223.106 199.049 222.896 198.966 222.729 198.799C222.563 198.632 222.479 198.428 222.479 198.187C222.479 197.947 222.563 197.743 222.729 197.576C222.896 197.409 223.106 197.326 223.357 197.326C223.609 197.326 223.819 197.409 223.985 197.576C224.152 197.743 224.236 197.947 224.236 198.187C224.236 198.428 224.152 198.632 223.985 198.799ZM223.035 198.51C223.12 198.595 223.228 198.638 223.357 198.638C223.487 198.638 223.593 198.595 223.674 198.51C223.759 198.421 223.802 198.313 223.802 198.187C223.802 198.061 223.759 197.956 223.674 197.871C223.593 197.782 223.487 197.737 223.357 197.737C223.228 197.737 223.12 197.782 223.035 197.871C222.954 197.956 222.913 198.061 222.913 198.187C222.913 198.313 222.954 198.421 223.035 198.51Z" fill="white"/>
<path d="M213.074 86.7955V87.6791L210.773 89.113L213.074 90.5468V91.4221L210.073 89.5464L207.238 91.3137V90.4384L209.364 89.113L207.238 87.7875V86.9122L210.064 88.6711L213.074 86.7955ZM213.074 82.5703L210.839 83.8791V85.2546H213.074V86.0298H207.238V83.6957C207.238 83.1955 207.416 82.7676 207.772 82.4119C208.122 82.0562 208.547 81.8784 209.047 81.8784C209.425 81.8784 209.77 81.9923 210.081 82.2201C210.392 82.4424 210.612 82.7314 210.739 83.0871L213.074 81.7116V82.5703ZM207.963 85.2546H210.139V83.6957C210.139 83.4067 210.034 83.1621 209.822 82.9621C209.606 82.7564 209.347 82.6536 209.047 82.6536C208.747 82.6536 208.491 82.7564 208.28 82.9621C208.069 83.1621 207.963 83.4067 207.963 83.6957V85.2546ZM207.238 78.8162C207.238 78.2771 207.419 77.8297 207.78 77.4741C208.136 77.1128 208.58 76.9322 209.114 76.9322C209.642 76.9322 210.086 77.1128 210.448 77.4741C210.809 77.8297 210.99 78.2771 210.99 78.8162V80.1583H213.074V80.9336H207.238V78.8162ZM210.264 78.8162C210.264 78.4939 210.156 78.2271 209.939 78.0159C209.717 77.8047 209.442 77.6991 209.114 77.6991C208.78 77.6991 208.505 77.8047 208.289 78.0159C208.072 78.2271 207.963 78.4939 207.963 78.8162V80.1583H210.264V78.8162Z" fill="white"/>
<g filter="url(#filter3_dddddd_1_884)">
<rect x="247.68" y="60.166" width="53.2174" height="159.047" rx="26.6087" fill="white"/>
<rect x="247.983" y="60.4684" width="52.6126" height="158.443" rx="26.3063" stroke="#E2E2E2" stroke-width="0.604743"/>
</g>
<path d="M267.762 193.95C268.784 193.95 269.627 194.271 270.289 194.914C270.952 195.547 271.283 196.37 271.283 197.383C271.283 198.396 270.952 199.224 270.289 199.867C269.627 200.51 268.784 200.831 267.762 200.831C266.729 200.831 265.882 200.51 265.219 199.867C264.567 199.224 264.241 198.396 264.241 197.383C264.241 196.594 264.445 195.912 264.854 195.338L268.141 190.414H269.69L267.279 193.979C267.494 193.96 267.654 193.95 267.762 193.95ZM266.184 198.947C266.593 199.336 267.119 199.531 267.762 199.531C268.404 199.531 268.926 199.336 269.325 198.947C269.734 198.547 269.939 198.026 269.939 197.383C269.939 196.74 269.734 196.224 269.325 195.835C268.926 195.445 268.404 195.25 267.762 195.25C267.109 195.25 266.583 195.445 266.184 195.835C265.784 196.224 265.585 196.74 265.585 197.383C265.585 198.026 265.784 198.547 266.184 198.947ZM278.26 193.658C278.26 194.447 278.05 195.133 277.631 195.718H277.646L274.344 200.641H272.81L275.235 197.062C275.021 197.081 274.856 197.091 274.739 197.091C273.706 197.091 272.859 196.774 272.196 196.141C271.544 195.499 271.218 194.671 271.218 193.658C271.218 192.645 271.544 191.822 272.196 191.188C272.859 190.546 273.706 190.224 274.739 190.224C275.771 190.224 276.614 190.546 277.266 191.188C277.929 191.822 278.26 192.645 278.26 193.658ZM273.161 192.109C272.761 192.499 272.562 193.015 272.562 193.658C272.562 194.3 272.761 194.822 273.161 195.221C273.57 195.611 274.096 195.805 274.739 195.805C275.381 195.805 275.903 195.611 276.302 195.221C276.711 194.822 276.916 194.3 276.916 193.658C276.916 193.015 276.716 192.499 276.317 192.109C275.917 191.719 275.391 191.524 274.739 191.524C274.096 191.524 273.57 191.719 273.161 192.109Z" fill="#0B1018"/>
<path d="M272.733 85.9722C272.861 85.7054 273.044 85.4942 273.283 85.3386C273.522 85.1774 273.797 85.0969 274.108 85.0969C274.575 85.0969 274.967 85.2608 275.284 85.5887C275.6 85.9166 275.759 86.3167 275.759 86.7891V89.3067H269.923V86.9725C269.923 86.5168 270.076 86.1306 270.382 85.8138C270.688 85.497 271.065 85.3386 271.516 85.3386C272.032 85.3386 272.438 85.5498 272.733 85.9722ZM270.649 86.9725V88.5314H272.433V86.9725C272.433 86.728 272.346 86.5224 272.174 86.3556C272.002 86.1889 271.791 86.1055 271.541 86.1055C271.296 86.1055 271.088 86.1917 270.915 86.364C270.738 86.5307 270.649 86.7335 270.649 86.9725ZM275.034 86.7891C275.034 86.5279 274.942 86.3084 274.758 86.1306C274.575 85.9527 274.35 85.8638 274.083 85.8638C273.822 85.8638 273.6 85.9555 273.416 86.1389C273.233 86.3167 273.141 86.5335 273.141 86.7891V88.5314H275.034V86.7891ZM275.025 83.4026V80.8851H275.759V84.1779H269.923V83.4026H275.025ZM269.923 76.9671H270.657V78.6927H275.759V79.4596H270.657V81.1769H269.923V76.9671Z" fill="#0B1018"/>
<path d="M282.568 196.742C282.316 196.742 282.107 196.659 281.94 196.492C281.774 196.326 281.69 196.122 281.69 195.881C281.69 195.644 281.774 195.442 281.94 195.275C282.111 195.105 282.32 195.02 282.568 195.02C282.82 195.02 283.03 195.103 283.196 195.27C283.363 195.436 283.446 195.64 283.446 195.881C283.446 196.122 283.363 196.326 283.196 196.492C283.033 196.659 282.824 196.742 282.568 196.742ZM282.246 196.209C282.331 196.294 282.439 196.337 282.568 196.337C282.698 196.337 282.804 196.292 282.885 196.203C282.97 196.114 283.013 196.007 283.013 195.881C283.013 195.755 282.97 195.65 282.885 195.564C282.804 195.475 282.698 195.431 282.568 195.431C282.439 195.431 282.331 195.475 282.246 195.564C282.165 195.65 282.124 195.755 282.124 195.881C282.124 196.011 282.165 196.12 282.246 196.209ZM281.952 198.432L284.536 195.542L284.808 195.692L282.218 198.588L281.952 198.432ZM284.875 198.799C284.708 198.966 284.499 199.049 284.247 199.049C283.995 199.049 283.785 198.966 283.619 198.799C283.452 198.632 283.369 198.428 283.369 198.187C283.369 197.947 283.452 197.743 283.619 197.576C283.785 197.409 283.995 197.326 284.247 197.326C284.499 197.326 284.708 197.409 284.875 197.576C285.041 197.743 285.125 197.947 285.125 198.187C285.125 198.428 285.041 198.632 284.875 198.799ZM283.924 198.51C284.01 198.595 284.117 198.638 284.247 198.638C284.376 198.638 284.482 198.595 284.564 198.51C284.649 198.421 284.691 198.313 284.691 198.187C284.691 198.061 284.649 197.956 284.564 197.871C284.482 197.782 284.376 197.737 284.247 197.737C284.117 197.737 284.01 197.782 283.924 197.871C283.843 197.956 283.802 198.061 283.802 198.187C283.802 198.313 283.843 198.421 283.924 198.51Z" fill="#0B1018"/>
<path d="M335.593 117.015H336.285V118.465H337.735V119.157H336.285V120.599H335.593V119.157H334.15V118.465H335.593V117.015ZM338.86 109.988L337.552 110.463V113.089L338.86 113.564V114.39L333.025 112.214V111.339L338.86 109.163V109.988ZM336.826 112.822V110.73L333.95 111.78L336.826 112.822ZM333.025 106.199C333.025 105.404 333.309 104.745 333.875 104.223C334.437 103.695 335.126 103.431 335.943 103.431C336.76 103.431 337.452 103.695 338.019 104.223C338.58 104.745 338.86 105.404 338.86 106.199V108.474H333.025V106.199ZM338.127 106.199C338.127 105.604 337.918 105.118 337.502 104.74C337.085 104.362 336.565 104.173 335.943 104.173C335.32 104.173 334.801 104.362 334.384 104.74C333.967 105.118 333.759 105.604 333.759 106.199V107.699H338.127V106.199ZM333.025 100.215C333.025 99.4203 333.309 98.7617 333.875 98.2393C334.437 97.7113 335.126 97.4473 335.943 97.4473C336.76 97.4473 337.452 97.7113 338.019 98.2393C338.58 98.7617 338.86 99.4203 338.86 100.215V102.491H333.025V100.215ZM338.127 100.215C338.127 99.6203 337.918 99.134 337.502 98.7561C337.085 98.3782 336.565 98.1893 335.943 98.1893C335.32 98.1893 334.801 98.3782 334.384 98.7561C333.967 99.134 333.759 99.6203 333.759 100.215V101.716H338.127V100.215ZM333.025 90.7969V90.0216H338.86V90.6468L334.501 93.6479H338.86V94.4231H333.025V93.7979L337.377 90.7969H333.025ZM338.127 87.9981V85.2888H338.86V88.7734H333.025V85.3305H333.759V87.9981H335.551V85.5389H336.276V87.9981H338.127ZM338.86 83.0941L333.025 84.7697V83.9527L337.827 82.6189L333.025 81.2017V80.4181L337.827 79.0009L333.025 77.6671V76.8502L338.86 78.5258V79.4261L334.2 80.8099L338.86 82.1937V83.0941Z" fill="black"/>
<rect x="310.851" y="60.4439" width="52.6616" height="158.492" rx="26.3308" stroke="#607D7C" stroke-width="0.555753" stroke-dasharray="4.45 4.45"/>
<path d="M331.965 200.982L330.402 195.536H331.164L332.409 200.017L333.732 195.536H334.463L335.786 200.017L337.031 195.536H337.793L336.229 200.982H335.389L334.097 196.633L332.806 200.982H331.965ZM341.259 197.092H341.936V200.982H341.259V200.313C340.922 200.827 340.431 201.083 339.788 201.083C339.244 201.083 338.779 200.886 338.396 200.492C338.012 200.093 337.82 199.608 337.82 199.037C337.82 198.466 338.012 197.984 338.396 197.59C338.779 197.19 339.244 196.991 339.788 196.991C340.431 196.991 340.922 197.248 341.259 197.761V197.092ZM339.874 200.43C340.268 200.43 340.597 200.297 340.862 200.033C341.126 199.763 341.259 199.431 341.259 199.037C341.259 198.643 341.126 198.313 340.862 198.049C340.597 197.779 340.268 197.644 339.874 197.644C339.485 197.644 339.158 197.779 338.893 198.049C338.629 198.313 338.497 198.643 338.497 199.037C338.497 199.431 338.629 199.763 338.893 200.033C339.158 200.297 339.485 200.43 339.874 200.43ZM342.961 200.982V195.302H343.638V200.982H342.961Z" fill="#607D7C"/>
<path d="M60.213 27.6159H62.7865L65.5966 35.0553H65.7149L68.525 27.6159H71.1133V38.2056H69.1314V32.9847L69.2498 31.2247H69.1314L66.4396 38.2056H64.8867L62.1801 31.2247H62.0618L62.1801 32.9847V38.2056H60.213V27.6159ZM75.4708 37.8506L72.291 30.6626H74.4947L76.447 35.3511H76.5653L78.4436 30.6626H80.603L75.9441 41.4002H73.8587L75.4708 37.8506ZM83.8488 27.6159H86.0673L87.5168 33.5615L87.6942 34.6707H87.8126L88.0492 33.5615L89.9128 27.6159H91.8798L93.699 33.5615L93.9357 34.6412H94.054L94.2315 33.5615L95.6661 27.6159H97.8846L95.1484 38.2056H93.0039L91.1995 31.8163L90.9629 30.6774H90.8445L90.6079 31.8163L88.7148 38.2056H86.6589L83.8488 27.6159ZM100.818 38.4422C100.019 38.4422 99.3636 38.2105 98.8509 37.7471C98.3382 37.2738 98.0818 36.6575 98.0818 35.8983C98.0818 35.3955 98.2149 34.9518 98.4812 34.5672C98.7474 34.1827 99.1122 33.8869 99.5756 33.6798C100.039 33.4727 100.552 33.3692 101.114 33.3692C101.893 33.3692 102.558 33.4826 103.11 33.7094V33.384C103.11 32.9699 102.953 32.6346 102.637 32.3783C102.332 32.1219 101.917 31.9937 101.395 31.9937C101.04 31.9937 100.695 32.0775 100.36 32.2452C100.034 32.4029 99.763 32.6149 99.5461 32.8811L98.3037 31.905C98.6685 31.4317 99.127 31.0669 99.6792 30.8105C100.231 30.5542 100.833 30.426 101.484 30.426C102.637 30.426 103.515 30.6922 104.116 31.2247C104.718 31.7571 105.018 32.536 105.018 33.5615V38.2056H103.11V37.4365H102.992C102.765 37.7323 102.465 37.9739 102.09 38.1612C101.725 38.3485 101.301 38.4422 100.818 38.4422ZM101.276 36.9336C101.839 36.9336 102.282 36.7561 102.608 36.4012C102.943 36.0364 103.11 35.6124 103.11 35.1292C102.608 34.8926 102.08 34.7743 101.528 34.7743C100.522 34.7743 100.019 35.149 100.019 35.8983C100.019 36.204 100.128 36.4554 100.345 36.6526C100.562 36.84 100.872 36.9336 101.276 36.9336ZM106.801 27.6159H108.739V38.2056H106.801V27.6159ZM110.643 27.6159H112.581V38.2056H110.643V27.6159ZM117.948 38.4422C117.198 38.4422 116.523 38.2697 115.922 37.9246C115.32 37.5795 114.847 37.1062 114.502 36.5047C114.166 35.8934 113.999 35.2081 113.999 34.4489C113.999 33.7291 114.166 33.0636 114.502 32.4522C114.837 31.831 115.3 31.338 115.892 30.9732C116.484 30.6084 117.144 30.426 117.874 30.426C118.653 30.426 119.323 30.5936 119.885 30.9289C120.447 31.2641 120.871 31.7226 121.157 32.3043C121.453 32.8861 121.601 33.5319 121.601 34.2418C121.601 34.4686 121.586 34.6855 121.557 34.8926H115.892C115.991 35.4941 116.227 35.9525 116.602 36.2681C116.986 36.5737 117.445 36.7266 117.977 36.7266C118.421 36.7266 118.801 36.6329 119.116 36.4455C119.442 36.2483 119.698 35.9871 119.885 35.6617L121.453 36.4308C120.684 37.7717 119.516 38.4422 117.948 38.4422ZM119.737 33.5171C119.718 33.2805 119.629 33.0488 119.471 32.822C119.323 32.5853 119.111 32.3931 118.835 32.2452C118.569 32.0874 118.253 32.0085 117.889 32.0085C117.425 32.0085 117.026 32.1466 116.691 32.4226C116.365 32.6889 116.129 33.0537 115.981 33.5171H119.737ZM126.16 38.3239C125.786 38.3239 125.44 38.2697 125.125 38.1612C124.809 38.0429 124.553 37.8851 124.356 37.6879C123.892 37.2442 123.661 36.6132 123.661 35.7948V32.3191H122.344V30.6626H123.661V28.5329H125.598V30.6626H127.447V32.3191H125.598V35.4398C125.598 35.8244 125.682 36.1004 125.85 36.2681C125.988 36.4258 126.224 36.5047 126.56 36.5047C126.747 36.5047 126.9 36.4801 127.018 36.4308C127.146 36.3815 127.309 36.2976 127.506 36.1793V38.0725C127.082 38.2401 126.633 38.3239 126.16 38.3239ZM132.072 38.4422C131.155 38.4422 130.411 38.2549 129.839 37.8802C129.277 37.5055 128.883 37.0174 128.656 36.416L130.386 35.6617C130.544 36.0166 130.766 36.2878 131.052 36.4751C131.348 36.6526 131.688 36.7413 132.072 36.7413C132.427 36.7413 132.723 36.6871 132.96 36.5787C133.196 36.4603 133.315 36.273 133.315 36.0166C133.315 35.7701 133.206 35.5877 132.989 35.4694C132.772 35.3412 132.447 35.2278 132.013 35.1292L131.126 34.937C130.514 34.7891 130.007 34.5228 129.602 34.1383C129.198 33.7439 128.996 33.2558 128.996 32.6741C128.996 32.2402 129.124 31.8508 129.381 31.5057C129.647 31.1606 130.002 30.8943 130.445 30.707C130.899 30.5197 131.397 30.426 131.939 30.426C133.497 30.426 134.537 30.9732 135.06 32.0677L133.403 32.7924C133.108 32.26 132.634 31.9937 131.984 31.9937C131.648 31.9937 131.382 32.0578 131.185 32.186C130.988 32.3043 130.889 32.4572 130.889 32.6445C130.889 32.9995 131.224 33.2657 131.895 33.4432L133.004 33.7094C133.753 33.8967 134.315 34.1827 134.69 34.5672C135.075 34.9518 135.267 35.425 135.267 35.9871C135.267 36.4702 135.124 36.8991 134.838 37.2738C134.562 37.6386 134.177 37.9246 133.684 38.1316C133.201 38.3387 132.664 38.4422 132.072 38.4422Z" fill="#3B3B3B"/>
<rect x="343.229" y="21.7866" width="21.7708" height="21.7708" rx="6.04743" fill="white"/>
<path d="M350.486 33.8814C351.154 33.8814 351.695 33.3399 351.695 32.6719C351.695 32.0039 351.154 31.4624 350.486 31.4624C349.818 31.4624 349.276 32.0039 349.276 32.6719C349.276 33.3399 349.818 33.8814 350.486 33.8814Z" fill="#3246D3"/>
<path d="M354.114 33.8814C354.782 33.8814 355.324 33.3399 355.324 32.6719C355.324 32.0039 354.782 31.4624 354.114 31.4624C353.446 31.4624 352.905 32.0039 352.905 32.6719C352.905 33.3399 353.446 33.8814 354.114 33.8814Z" fill="#3246D3"/>
<path d="M357.743 33.8814C358.411 33.8814 358.952 33.3399 358.952 32.6719C358.952 32.0039 358.411 31.4624 357.743 31.4624C357.075 31.4624 356.533 32.0039 356.533 32.6719C356.533 33.3399 357.075 33.8814 357.743 33.8814Z" fill="#3246D3"/>
<path d="M385.778 85.5515L379.508 78.6547L385.778 72.3848L380.449 67.0555L385.778 61.7261L380.449 56.3968L385.778 51.0674L380.449 45.738L385.778 40.4087L380.449 35.0793L385.778 29.7499L380.449 24.4206L385.778 19.0912L380.449 13.7618" stroke="#E6EFFF" stroke-width="1.25397" stroke-linecap="round" stroke-linejoin="round"/>
<circle cx="380.762" cy="13.762" r="3.13492" transform="rotate(-90 380.762 13.762)" fill="#002F86" stroke="white" stroke-width="1.25397"/>
<circle cx="385.778" cy="85.2381" r="3.13492" transform="rotate(-90 385.778 85.2381)" fill="#002F86" stroke="white" stroke-width="1.25397"/>
<defs>
<filter id="filter0_dddddd_1_884" x="0.558811" y="59.219" width="170.1" height="291.488" filterUnits="userSpaceOnUse" color-interpolation-filters="sRGB">
<feFlood flood-opacity="0" result="BackgroundImageFix"/>
<feColorMatrix in="SourceAlpha" type="matrix" values="0 0 0 0 0 0 0 0 0 0 0 0 0 0 0 0 0 0 127 0" result="hardAlpha"/>
<feOffset dy="1.35281"/>
<feGaussianBlur stdDeviation="1.14989"/>
<feColorMatrix type="matrix" values="0 0 0 0 0 0 0 0 0 0 0 0 0 0 0 0 0 0 0.01 0"/>
<feBlend mode="normal" in2="BackgroundImageFix" result="effect1_dropShadow_1_884"/>
<feColorMatrix in="SourceAlpha" type="matrix" values="0 0 0 0 0 0 0 0 0 0 0 0 0 0 0 0 0 0 127 0" result="hardAlpha"/>
<feOffset dy="5.95237"/>
<feGaussianBlur stdDeviation="2.38095"/>
<feColorMatrix type="matrix" values="0 0 0 0 0 0 0 0 0 0 0 0 0 0 0 0 0 0 0.01 0"/>
<feBlend mode="normal" in2="effect1_dropShadow_1_884" result="effect2_dropShadow_1_884"/>
<feColorMatrix in="SourceAlpha" type="matrix" values="0 0 0 0 0 0 0 0 0 0 0 0 0 0 0 0 0 0 127 0" result="hardAlpha"/>
<feOffset dy="14.6104"/>
<feGaussianBlur stdDeviation="4.74837"/>
<feColorMatrix type="matrix" values="0 0 0 0 0 0 0 0 0 0 0 0 0 0 0 0 0 0 0.01 0"/>
<feBlend mode="normal" in2="effect2_dropShadow_1_884" result="effect3_dropShadow_1_884"/>
<feColorMatrix in="SourceAlpha" type="matrix" values="0 0 0 0 0 0 0 0 0 0 0 0 0 0 0 0 0 0 127 0" result="hardAlpha"/>
<feOffset dy="28.1385"/>
<feGaussianBlur stdDeviation="9.30734"/>
<feColorMatrix type="matrix" values="0 0 0 0 0 0 0 0 0 0 0 0 0 0 0 0 0 0 0.01 0"/>
<feBlend mode="normal" in2="effect3_dropShadow_1_884" result="effect4_dropShadow_1_884"/>
<feColorMatrix in="SourceAlpha" type="matrix" values="0 0 0 0 0 0 0 0 0 0 0 0 0 0 0 0 0 0 127 0" result="hardAlpha"/>
<feOffset dy="47.3484"/>
<feGaussianBlur stdDeviation="17.1131"/>
<feColorMatrix type="matrix" values="0 0 0 0 0 0 0 0 0 0 0 0 0 0 0 0 0 0 0.01 0"/>
<feBlend mode="normal" in2="effect4_dropShadow_1_884" result="effect5_dropShadow_1_884"/>
<feColorMatrix in="SourceAlpha" type="matrix" values="0 0 0 0 0 0 0 0 0 0 0 0 0 0 0 0 0 0 127 0" result="hardAlpha"/>
<feOffset dy="73.0518"/>
<feGaussianBlur stdDeviation="29.2207"/>
<feColorMatrix type="matrix" values="0 0 0 0 0 0 0 0 0 0 0 0 0 0 0 0 0 0 0.01 0"/>
<feBlend mode="normal" in2="effect5_dropShadow_1_884" result="effect6_dropShadow_1_884"/>
<feBlend mode="normal" in="SourceGraphic" in2="effect6_dropShadow_1_884" result="shape"/>
</filter>
<filter id="filter1_dddddd_1_884" x="63.4524" y="59.219" width="170.1" height="291.488" filterUnits="userSpaceOnUse" color-interpolation-filters="sRGB">
<feFlood flood-opacity="0" result="BackgroundImageFix"/>
<feColorMatrix in="SourceAlpha" type="matrix" values="0 0 0 0 0 0 0 0 0 0 0 0 0 0 0 0 0 0 127 0" result="hardAlpha"/>
<feOffset dy="1.35281"/>
<feGaussianBlur stdDeviation="1.14989"/>
<feColorMatrix type="matrix" values="0 0 0 0 0 0 0 0 0 0 0 0 0 0 0 0 0 0 0.01 0"/>
<feBlend mode="normal" in2="BackgroundImageFix" result="effect1_dropShadow_1_884"/>
<feColorMatrix in="SourceAlpha" type="matrix" values="0 0 0 0 0 0 0 0 0 0 0 0 0 0 0 0 0 0 127 0" result="hardAlpha"/>
<feOffset dy="5.95237"/>
<feGaussianBlur stdDeviation="2.38095"/>
<feColorMatrix type="matrix" values="0 0 0 0 0 0 0 0 0 0 0 0 0 0 0 0 0 0 0.01 0"/>
<feBlend mode="normal" in2="effect1_dropShadow_1_884" result="effect2_dropShadow_1_884"/>
<feColorMatrix in="SourceAlpha" type="matrix" values="0 0 0 0 0 0 0 0 0 0 0 0 0 0 0 0 0 0 127 0" result="hardAlpha"/>
<feOffset dy="14.6104"/>
<feGaussianBlur stdDeviation="4.74837"/>
<feColorMatrix type="matrix" values="0 0 0 0 0 0 0 0 0 0 0 0 0 0 0 0 0 0 0.01 0"/>
<feBlend mode="normal" in2="effect2_dropShadow_1_884" result="effect3_dropShadow_1_884"/>
<feColorMatrix in="SourceAlpha" type="matrix" values="0 0 0 0 0 0 0 0 0 0 0 0 0 0 0 0 0 0 127 0" result="hardAlpha"/>
<feOffset dy="28.1385"/>
<feGaussianBlur stdDeviation="9.30734"/>
<feColorMatrix type="matrix" values="0 0 0 0 0 0 0 0 0 0 0 0 0 0 0 0 0 0 0.01 0"/>
<feBlend mode="normal" in2="effect3_dropShadow_1_884" result="effect4_dropShadow_1_884"/>
<feColorMatrix in="SourceAlpha" type="matrix" values="0 0 0 0 0 0 0 0 0 0 0 0 0 0 0 0 0 0 127 0" result="hardAlpha"/>
<feOffset dy="47.3484"/>
<feGaussianBlur stdDeviation="17.1131"/>
<feColorMatrix type="matrix" values="0 0 0 0 0 0 0 0 0 0 0 0 0 0 0 0 0 0 0.01 0"/>
<feBlend mode="normal" in2="effect4_dropShadow_1_884" result="effect5_dropShadow_1_884"/>
<feColorMatrix in="SourceAlpha" type="matrix" values="0 0 0 0 0 0 0 0 0 0 0 0 0 0 0 0 0 0 127 0" result="hardAlpha"/>
<feOffset dy="73.0518"/>
<feGaussianBlur stdDeviation="29.2207"/>
<feColorMatrix type="matrix" values="0 0 0 0 0 0 0 0 0 0 0 0 0 0 0 0 0 0 0.01 0"/>
<feBlend mode="normal" in2="effect5_dropShadow_1_884" result="effect6_dropShadow_1_884"/>
<feBlend mode="normal" in="SourceGraphic" in2="effect6_dropShadow_1_884" result="shape"/>
</filter>
<filter id="filter2_dddddd_1_884" x="137.303" y="43.3641" width="148.185" height="254.015" filterUnits="userSpaceOnUse" color-interpolation-filters="sRGB">
<feFlood flood-opacity="0" result="BackgroundImageFix"/>
<feColorMatrix in="SourceAlpha" type="matrix" values="0 0 0 0 0 0 0 0 0 0 0 0 0 0 0 0 0 0 127 0" result="hardAlpha"/>
<feOffset dy="0.568181"/>
<feGaussianBlur stdDeviation="0.934285"/>
<feColorMatrix type="matrix" values="0 0 0 0 0.0784314 0 0 0 0 0.133333 0 0 0 0 0.956863 0 0 0 0.0337037 0"/>
<feBlend mode="normal" in2="BackgroundImageFix" result="effect1_dropShadow_1_884"/>
<feColorMatrix in="SourceAlpha" type="matrix" values="0 0 0 0 0 0 0 0 0 0 0 0 0 0 0 0 0 0 127 0" result="hardAlpha"/>
<feOffset dy="2.49999"/>
<feGaussianBlur stdDeviation="1.93452"/>
<feColorMatrix type="matrix" values="0 0 0 0 0.0784314 0 0 0 0 0.133333 0 0 0 0 0.956863 0 0 0 0.054963 0"/>
<feBlend mode="normal" in2="effect1_dropShadow_1_884" result="effect2_dropShadow_1_884"/>
<feColorMatrix in="SourceAlpha" type="matrix" values="0 0 0 0 0 0 0 0 0 0 0 0 0 0 0 0 0 0 127 0" result="hardAlpha"/>
<feOffset dy="6.13635"/>
<feGaussianBlur stdDeviation="3.85805"/>
<feColorMatrix type="matrix" values="0 0 0 0 0.0784314 0 0 0 0 0.133333 0 0 0 0 0.956863 0 0 0 0.07 0"/>
<feBlend mode="normal" in2="effect2_dropShadow_1_884" result="effect3_dropShadow_1_884"/>
<feColorMatrix in="SourceAlpha" type="matrix" values="0 0 0 0 0 0 0 0 0 0 0 0 0 0 0 0 0 0 127 0" result="hardAlpha"/>
<feOffset dy="11.8182"/>
<feGaussianBlur stdDeviation="7.56221"/>
<feColorMatrix type="matrix" values="0 0 0 0 0.0784314 0 0 0 0 0.133333 0 0 0 0 0.956863 0 0 0 0.085037 0"/>
<feBlend mode="normal" in2="effect3_dropShadow_1_884" result="effect4_dropShadow_1_884"/>
<feColorMatrix in="SourceAlpha" type="matrix" values="0 0 0 0 0 0 0 0 0 0 0 0 0 0 0 0 0 0 127 0" result="hardAlpha"/>
<feOffset dy="19.8863"/>
<feGaussianBlur stdDeviation="13.9044"/>
<feColorMatrix type="matrix" values="0 0 0 0 0.0784314 0 0 0 0 0.133333 0 0 0 0 0.956863 0 0 0 0.106296 0"/>
<feBlend mode="normal" in2="effect4_dropShadow_1_884" result="effect5_dropShadow_1_884"/>
<feColorMatrix in="SourceAlpha" type="matrix" values="0 0 0 0 0 0 0 0 0 0 0 0 0 0 0 0 0 0 127 0" result="hardAlpha"/>
<feOffset dy="30.6818"/>
<feGaussianBlur stdDeviation="23.7418"/>
<feColorMatrix type="matrix" values="0 0 0 0 0.0784314 0 0 0 0 0.133333 0 0 0 0 0.956863 0 0 0 0.14 0"/>
<feBlend mode="normal" in2="effect5_dropShadow_1_884" result="effect6_dropShadow_1_884"/>
<feBlend mode="normal" in="SourceGraphic" in2="effect6_dropShadow_1_884" result="shape"/>
</filter>
<filter id="filter3_dddddd_1_884" x="189.239" y="59.219" width="170.1" height="291.488" filterUnits="userSpaceOnUse" color-interpolation-filters="sRGB">
<feFlood flood-opacity="0" result="BackgroundImageFix"/>
<feColorMatrix in="SourceAlpha" type="matrix" values="0 0 0 0 0 0 0 0 0 0 0 0 0 0 0 0 0 0 127 0" result="hardAlpha"/>
<feOffset dy="1.35281"/>
<feGaussianBlur stdDeviation="1.14989"/>
<feColorMatrix type="matrix" values="0 0 0 0 0 0 0 0 0 0 0 0 0 0 0 0 0 0 0.01 0"/>
<feBlend mode="normal" in2="BackgroundImageFix" result="effect1_dropShadow_1_884"/>
<feColorMatrix in="SourceAlpha" type="matrix" values="0 0 0 0 0 0 0 0 0 0 0 0 0 0 0 0 0 0 127 0" result="hardAlpha"/>
<feOffset dy="5.95237"/>
<feGaussianBlur stdDeviation="2.38095"/>
<feColorMatrix type="matrix" values="0 0 0 0 0 0 0 0 0 0 0 0 0 0 0 0 0 0 0.01 0"/>
<feBlend mode="normal" in2="effect1_dropShadow_1_884" result="effect2_dropShadow_1_884"/>
<feColorMatrix in="SourceAlpha" type="matrix" values="0 0 0 0 0 0 0 0 0 0 0 0 0 0 0 0 0 0 127 0" result="hardAlpha"/>
<feOffset dy="14.6104"/>
<feGaussianBlur stdDeviation="4.74837"/>
<feColorMatrix type="matrix" values="0 0 0 0 0 0 0 0 0 0 0 0 0 0 0 0 0 0 0.01 0"/>
<feBlend mode="normal" in2="effect2_dropShadow_1_884" result="effect3_dropShadow_1_884"/>
<feColorMatrix in="SourceAlpha" type="matrix" values="0 0 0 0 0 0 0 0 0 0 0 0 0 0 0 0 0 0 127 0" result="hardAlpha"/>
<feOffset dy="28.1385"/>
<feGaussianBlur stdDeviation="9.30734"/>
<feColorMatrix type="matrix" values="0 0 0 0 0 0 0 0 0 0 0 0 0 0 0 0 0 0 0.01 0"/>
<feBlend mode="normal" in2="effect3_dropShadow_1_884" result="effect4_dropShadow_1_884"/>
<feColorMatrix in="SourceAlpha" type="matrix" values="0 0 0 0 0 0 0 0 0 0 0 0 0 0 0 0 0 0 127 0" result="hardAlpha"/>
<feOffset dy="47.3484"/>
<feGaussianBlur stdDeviation="17.1131"/>
<feColorMatrix type="matrix" values="0 0 0 0 0 0 0 0 0 0 0 0 0 0 0 0 0 0 0.01 0"/>
<feBlend mode="normal" in2="effect4_dropShadow_1_884" result="effect5_dropShadow_1_884"/>
<feColorMatrix in="SourceAlpha" type="matrix" values="0 0 0 0 0 0 0 0 0 0 0 0 0 0 0 0 0 0 127 0" result="hardAlpha"/>
<feOffset dy="73.0518"/>
<feGaussianBlur stdDeviation="29.2207"/>
<feColorMatrix type="matrix" values="0 0 0 0 0 0 0 0 0 0 0 0 0 0 0 0 0 0 0.01 0"/>
<feBlend mode="normal" in2="effect5_dropShadow_1_884" result="effect6_dropShadow_1_884"/>
<feBlend mode="normal" in="SourceGraphic" in2="effect6_dropShadow_1_884" result="shape"/>
</filter>
</defs>
</svg>
