<svg width="366" height="238" viewBox="0 0 366 238" fill="none" xmlns="http://www.w3.org/2000/svg">
<rect width="366" height="238" fill="#F8F8FE"/>
<path d="M39.0002 13C35.5859 13 32.2049 13.6725 29.0505 14.9791C25.896 16.2858 23.0298 18.2009 20.6155 20.6152C18.2011 23.0295 16.286 25.8958 14.9794 29.0502C13.6727 32.2047 13.0002 35.5856 13.0002 39L39.0002 39L39.0002 13Z" fill="#FF7F5C"/>
<rect x="24" y="31" width="318" height="185" fill="white"/>
<path d="M98.4921 100.11V98.481H95.4861V97.2371H98.4921V93.4315H96.6411L95.1011 91.8914V89.1076L96.6411 87.5675H98.4921V85.9387H99.7952V87.5675H102.446V88.8114H99.7952V92.2468H101.468L103.008 93.7869V96.9261L101.468 98.481H99.7952V100.11H98.4921ZM97.2482 92.2468H98.4921V88.8114H97.263L96.4486 89.6258V91.4472L97.2482 92.2468ZM99.7952 97.2371H100.847L101.661 96.4227V94.2459L100.861 93.4315H99.7952V97.2371ZM106.18 98.481L104.685 96.9706L105.558 96.0969L106.758 97.2815H110.164L110.978 96.4671V93.6832L110.164 92.8688H105.188V87.5675H111.852V88.8114H106.536V91.6693H110.771L112.326 93.2242V96.9261L110.771 98.481H106.18ZM113.67 100.11L114.262 96.7336H115.565L114.425 100.11H113.67ZM117.648 98.481V96.7336L123.482 91.003V89.5814L122.682 88.7522L119.661 88.767L118.462 89.9812L117.588 89.0928L119.084 87.5675H123.289L124.829 89.1224V91.5361L119.158 97.1482V97.2371H124.992V98.481H117.648ZM128.277 98.481L126.781 96.9706L127.655 96.0969L128.854 97.2815H132.26L133.074 96.4671V93.6832L132.26 92.8688H127.284V87.5675H133.948V88.8114H128.632V91.6693H132.867L134.422 93.2242V96.9261L132.867 98.481H128.277ZM137.987 98.481L136.432 96.9261V89.1224L137.987 87.5675H142.726L144.28 89.1224V96.9261L142.726 98.481H137.987ZM138.594 97.2815H142.118L142.933 96.4671V89.5814L142.118 88.767H138.594L137.78 89.5814L137.795 96.4671L138.594 97.2815ZM146.22 98.481V96.7336H147.524V98.481H146.22ZM151.22 98.481L149.725 96.9706L150.598 96.0969L151.798 97.2815H155.337L156.136 96.4671V93.4759L155.233 94.3792H151.279L149.739 92.8243V89.1224L151.279 87.5675H155.944L157.484 89.1224V96.9261L155.944 98.481H151.22ZM151.901 93.1797H155.129L156.136 92.1284V89.5814L155.337 88.767H151.901L151.087 89.5814V92.3653L151.901 93.1797ZM161.067 98.481L159.512 96.9261V89.1224L161.067 87.5675H165.805L167.36 89.1224V96.9261L165.805 98.481H161.067ZM161.674 97.2815H165.198L166.012 96.4671V89.5814L165.198 88.767H161.674L160.859 89.5814L160.874 96.4671L161.674 97.2815Z" fill="black"/>
<path d="M96.2279 71.0163H94.3339V70.253H98.9135V71.0163H97.0289V77H96.2279V71.0163ZM101.222 77.1508C100.751 77.1508 100.327 77.0377 99.95 76.8115C99.573 76.5854 99.2778 76.2776 99.0642 75.8881C98.8569 75.4986 98.7532 75.0682 98.7532 74.5971C98.7532 74.1259 98.8569 73.6956 99.0642 73.3061C99.2778 72.9166 99.573 72.6088 99.95 72.3826C100.327 72.1565 100.751 72.0434 101.222 72.0434C101.693 72.0434 102.117 72.1565 102.494 72.3826C102.871 72.6088 103.163 72.9166 103.371 73.3061C103.584 73.6956 103.691 74.1259 103.691 74.5971C103.691 75.0682 103.584 75.4986 103.371 75.8881C103.163 76.2776 102.871 76.5854 102.494 76.8115C102.117 77.0377 101.693 77.1508 101.222 77.1508ZM101.222 76.4252C101.517 76.4252 101.791 76.3529 102.042 76.2085C102.299 76.0577 102.504 75.8441 102.654 75.5677C102.811 75.2913 102.89 74.9677 102.89 74.5971C102.89 74.2264 102.811 73.9029 102.654 73.6265C102.504 73.3501 102.299 73.1396 102.042 72.9951C101.791 72.8444 101.517 72.769 101.222 72.769C100.927 72.769 100.65 72.8444 100.393 72.9951C100.135 73.1396 99.928 73.3501 99.7709 73.6265C99.6201 73.9029 99.5448 74.2264 99.5448 74.5971C99.5448 74.9677 99.6201 75.2913 99.7709 75.5677C99.928 75.8441 100.135 76.0577 100.393 76.2085C100.65 76.3529 100.927 76.4252 101.222 76.4252ZM106.33 77.0754C106.135 77.0754 105.953 77.044 105.783 76.9812C105.62 76.9183 105.482 76.8335 105.369 76.7267C105.243 76.6074 105.149 76.4692 105.086 76.3121C105.023 76.1551 104.992 75.9634 104.992 75.7373V72.9198H104.153V72.1942H104.992V70.8372H105.793V72.1942H106.961V72.9198H105.793V75.5394C105.793 75.8033 105.843 75.998 105.944 76.1236C106.063 76.2618 106.236 76.331 106.462 76.331C106.644 76.331 106.82 76.2776 106.99 76.1708V76.9529C106.895 76.9969 106.798 77.0283 106.697 77.0471C106.603 77.066 106.481 77.0754 106.33 77.0754ZM109.378 77.1508C109.026 77.1508 108.712 77.0817 108.436 76.9435C108.159 76.8053 107.946 76.6168 107.795 76.3781C107.644 76.1331 107.569 75.8567 107.569 75.5488C107.569 75.04 107.76 74.6442 108.143 74.3615C108.527 74.0725 109.01 73.928 109.595 73.928C109.884 73.928 110.151 73.9594 110.396 74.0223C110.647 74.0851 110.838 74.1573 110.97 74.239V73.9469C110.97 73.5888 110.845 73.303 110.593 73.0894C110.342 72.8695 110.025 72.7596 109.642 72.7596C109.372 72.7596 109.123 72.8192 108.897 72.9386C108.671 73.0517 108.492 73.2119 108.36 73.4192L107.757 72.9669C107.946 72.6779 108.203 72.4517 108.53 72.2884C108.863 72.1251 109.23 72.0434 109.632 72.0434C110.286 72.0434 110.798 72.2162 111.168 72.5617C111.545 72.9009 111.734 73.3658 111.734 73.9563V77H110.97V76.3121H110.933C110.794 76.5445 110.587 76.7424 110.311 76.9058C110.034 77.0691 109.723 77.1508 109.378 77.1508ZM109.453 76.444C109.723 76.444 109.975 76.3749 110.207 76.2367C110.44 76.0985 110.625 75.9132 110.763 75.6808C110.901 75.4483 110.97 75.1939 110.97 74.9175C110.82 74.817 110.634 74.7353 110.414 74.6725C110.195 74.6096 109.962 74.5782 109.717 74.5782C109.277 74.5782 108.944 74.6693 108.718 74.8515C108.498 75.0337 108.388 75.2693 108.388 75.5582C108.388 75.8221 108.489 76.0357 108.69 76.199C108.891 76.3624 109.145 76.444 109.453 76.444ZM112.848 70.253H113.649V77H112.848V70.253ZM117.026 72.1942H117.789V72.9009H117.827C117.959 72.6622 118.169 72.4612 118.458 72.2978C118.747 72.1282 119.055 72.0434 119.382 72.0434C119.96 72.0434 120.399 72.213 120.701 72.5522C121.009 72.8852 121.163 73.3407 121.163 73.9186V77H120.362V74.0411C120.362 73.5951 120.255 73.2716 120.041 73.0705C119.828 72.8695 119.536 72.769 119.165 72.769C118.907 72.769 118.675 72.8412 118.468 72.9857C118.267 73.1302 118.11 73.3218 117.996 73.5605C117.883 73.793 117.827 74.038 117.827 74.2955V77H117.026V72.1942ZM124.447 77.1508C123.988 77.1508 123.577 77.0408 123.213 76.821C122.848 76.6011 122.562 76.2995 122.355 75.9163C122.154 75.5268 122.054 75.0902 122.054 74.6065C122.054 74.1416 122.148 73.7144 122.336 73.3249C122.531 72.9355 122.804 72.6245 123.156 72.3921C123.508 72.1596 123.916 72.0434 124.381 72.0434C124.852 72.0434 125.261 72.1502 125.606 72.3638C125.952 72.5711 126.215 72.8601 126.398 73.2307C126.586 73.6014 126.68 74.0254 126.68 74.5028C126.68 74.5971 126.671 74.6787 126.652 74.7479H122.855C122.873 75.1122 122.961 75.42 123.118 75.6713C123.275 75.9226 123.473 76.1111 123.712 76.2367C123.957 76.3624 124.211 76.4252 124.475 76.4252C125.091 76.4252 125.565 76.1362 125.898 75.5582L126.577 75.8881C126.369 76.2776 126.087 76.5854 125.729 76.8115C125.377 77.0377 124.95 77.1508 124.447 77.1508ZM125.832 74.0882C125.82 73.8872 125.763 73.6862 125.663 73.4851C125.562 73.2841 125.402 73.1145 125.182 72.9763C124.968 72.8381 124.698 72.769 124.372 72.769C123.995 72.769 123.674 72.8915 123.411 73.1365C123.153 73.3752 122.983 73.6925 122.902 74.0882H125.832ZM129.327 77.0754C129.132 77.0754 128.95 77.044 128.78 76.9812C128.617 76.9183 128.479 76.8335 128.365 76.7267C128.24 76.6074 128.146 76.4692 128.083 76.3121C128.02 76.1551 127.989 75.9634 127.989 75.7373V72.9198H127.15V72.1942H127.989V70.8372H128.79V72.1942H129.958V72.9198H128.79V75.5394C128.79 75.8033 128.84 75.998 128.94 76.1236C129.06 76.2618 129.232 76.331 129.459 76.331C129.641 76.331 129.817 76.2776 129.986 76.1708V76.9529C129.892 76.9969 129.795 77.0283 129.694 77.0471C129.6 77.066 129.477 77.0754 129.327 77.0754ZM132.593 72.1942H133.413L134.562 75.9917H134.572L135.778 72.1942H136.607L137.823 75.9823H137.832L138.973 72.1942H139.783L138.228 77H137.418L136.174 73.1648L134.939 77H134.138L132.593 72.1942ZM142.568 77.1508C142.097 77.1508 141.673 77.0377 141.296 76.8115C140.919 76.5854 140.624 76.2776 140.41 75.8881C140.203 75.4986 140.099 75.0682 140.099 74.5971C140.099 74.1259 140.203 73.6956 140.41 73.3061C140.624 72.9166 140.919 72.6088 141.296 72.3826C141.673 72.1565 142.097 72.0434 142.568 72.0434C143.039 72.0434 143.463 72.1565 143.84 72.3826C144.217 72.6088 144.509 72.9166 144.717 73.3061C144.93 73.6956 145.037 74.1259 145.037 74.5971C145.037 75.0682 144.93 75.4986 144.717 75.8881C144.509 76.2776 144.217 76.5854 143.84 76.8115C143.463 77.0377 143.039 77.1508 142.568 77.1508ZM142.568 76.4252C142.864 76.4252 143.137 76.3529 143.388 76.2085C143.646 76.0577 143.85 75.8441 144.001 75.5677C144.158 75.2913 144.236 74.9677 144.236 74.5971C144.236 74.2264 144.158 73.9029 144.001 73.6265C143.85 73.3501 143.646 73.1396 143.388 72.9951C143.137 72.8444 142.864 72.769 142.568 72.769C142.273 72.769 141.997 72.8444 141.739 72.9951C141.481 73.1396 141.274 73.3501 141.117 73.6265C140.966 73.9029 140.891 74.2264 140.891 74.5971C140.891 74.9677 140.966 75.2913 141.117 75.5677C141.274 75.8441 141.481 76.0577 141.739 76.2085C141.997 76.3529 142.273 76.4252 142.568 76.4252ZM145.875 72.1942H146.638V72.9574H146.676C146.789 72.6747 146.981 72.4549 147.251 72.2978C147.521 72.1408 147.816 72.0622 148.137 72.0622C148.275 72.0622 148.391 72.0717 148.485 72.0905V72.9103C148.379 72.8852 148.234 72.8726 148.052 72.8726C147.644 72.8726 147.311 73.0077 147.053 73.2778C146.802 73.548 146.676 73.8998 146.676 74.3332V77H145.875V72.1942ZM151.294 77.0754C151.099 77.0754 150.917 77.044 150.747 76.9812C150.584 76.9183 150.445 76.8335 150.332 76.7267C150.207 76.6074 150.113 76.4692 150.05 76.3121C149.987 76.1551 149.955 75.9634 149.955 75.7373V72.9198H149.117V72.1942H149.955V70.8372H150.756V72.1942H151.925V72.9198H150.756V75.5394C150.756 75.8033 150.807 75.998 150.907 76.1236C151.027 76.2618 151.199 76.331 151.425 76.331C151.608 76.331 151.784 76.2776 151.953 76.1708V76.9529C151.859 76.9969 151.762 77.0283 151.661 77.0471C151.567 77.066 151.444 77.0754 151.294 77.0754ZM152.943 70.253H153.744V72.2413L153.706 72.9009H153.744C153.876 72.6559 154.083 72.4517 154.366 72.2884C154.654 72.1251 154.969 72.0434 155.308 72.0434C155.892 72.0434 156.338 72.2162 156.646 72.5617C156.954 72.9009 157.108 73.3532 157.108 73.9186V77H156.307V74.0411C156.307 73.6076 156.197 73.2873 155.977 73.0799C155.757 72.8726 155.471 72.769 155.119 72.769C154.868 72.769 154.636 72.8444 154.422 72.9951C154.215 73.1459 154.048 73.3407 153.923 73.5794C153.803 73.8181 153.744 74.0662 153.744 74.3238V77H152.943V70.253Z" fill="#6F767E"/>
<rect opacity="0.1" x="47.0669" y="68" width="33.6543" height="33.6543" rx="6.62281" fill="#427A0A"/>
<path fill-rule="evenodd" clip-rule="evenodd" d="M57.4434 92.5925H58.6796V86.4112H57.4434V92.5925ZM59.2977 93.8289H56.8252C56.4833 93.8289 56.207 93.5525 56.207 93.2107V85.7932C56.207 85.4514 56.4833 85.175 56.8252 85.175H59.2977C59.6395 85.175 59.9158 85.4514 59.9158 85.7932V93.2107C59.9158 93.5525 59.6395 93.8289 59.2977 93.8289Z" fill="#427A0A"/>
<path fill-rule="evenodd" clip-rule="evenodd" d="M63.0067 92.5927H64.243V81.4664H63.0067V92.5927ZM64.861 93.8291H62.3885C62.0467 93.8291 61.7704 93.5528 61.7704 93.2109V80.8484C61.7704 80.5065 62.0467 80.2302 62.3885 80.2302H64.861C65.2029 80.2302 65.4792 80.5065 65.4792 80.8484V93.2109C65.4792 93.5528 65.2029 93.8291 64.861 93.8291Z" fill="#427A0A"/>
<path fill-rule="evenodd" clip-rule="evenodd" d="M68.5697 92.5927H69.806V76.5213H68.5697V92.5927ZM70.424 93.829H67.9515C67.6097 93.829 67.3334 93.5527 67.3334 93.2109V75.9033C67.3334 75.5615 67.6097 75.2852 67.9515 75.2852H70.424C70.7658 75.2852 71.0421 75.5615 71.0421 75.9033V93.2109C71.0421 93.5527 70.7658 93.829 70.424 93.829Z" fill="#427A0A"/>
<path d="M241.859 101.456V99.8271H238.853V98.5833H241.859V94.7777H240.008L238.468 93.2376V90.4537L240.008 88.9137H241.859V87.2849H243.162V88.9137H245.812V90.1576H243.162V93.593H244.835L246.375 95.133V98.2723L244.835 99.8271H243.162V101.456H241.859ZM240.615 93.593H241.859V90.1576H240.629L239.815 90.972V92.7934L240.615 93.593ZM243.162 98.5833H244.213L245.027 97.7689V95.5921L244.228 94.7777H243.162V98.5833ZM248.14 99.8271V98.5833H249.813V90.1576H248.318V88.9137H251.161V98.5833H252.834V99.8271H248.14ZM256.134 99.8271L254.579 98.2723V90.4686L256.134 88.9137H260.872L262.427 90.4686V98.2723L260.872 99.8271H256.134ZM256.741 98.6277H260.265L261.08 97.8133V90.9276L260.265 90.1132H256.741L255.927 90.9276L255.941 97.8133L256.741 98.6277ZM263.775 101.456L264.367 98.0798H265.67L264.53 101.456H263.775ZM268.997 99.8271L267.501 98.3167L268.375 97.4431L269.574 98.6277H272.98L273.794 97.8133V95.0294L272.98 94.215H268.005V88.9137H274.668V90.1576H269.352V93.0155H273.587L275.142 94.5703V98.2723L273.587 99.8271H268.997ZM278.766 99.8271L277.271 98.3167L278.144 97.4431L279.344 98.6277H282.883L283.683 97.8133V94.8221L282.779 95.7254H278.826L277.286 94.1705V90.4686L278.826 88.9137H283.49L285.03 90.4686V98.2723L283.49 99.8271H278.766ZM279.448 94.5259H282.676L283.683 93.4746V90.9276L282.883 90.1132H279.448L278.633 90.9276V93.7115L279.448 94.5259ZM288.613 99.8271L287.058 98.2723V90.4686L288.613 88.9137H293.485L294.98 90.4241L294.107 91.2978L292.907 90.1132H289.22L288.406 90.9276V93.978L289.324 93.0747H293.411L294.951 94.6296V98.2723L293.411 99.8271H288.613ZM289.22 98.6277H292.803L293.603 97.8133V95.0738L292.803 94.2594H289.368L288.406 95.2663V97.8133L289.22 98.6277ZM296.947 99.8271V98.0798H298.251V99.8271H296.947ZM301.888 99.8271L300.333 98.2723V95.059L301.399 93.9928L300.688 93.2524V90.4686L302.243 88.9137H306.434L307.989 90.4686V93.2524L307.278 93.9928L308.344 95.059V98.2723L306.789 99.8271H301.888ZM302.613 93.4746H306.064L306.641 92.8526V90.9276L305.842 90.0984L302.85 90.1132L302.036 90.9276V92.8526L302.613 93.4746ZM302.495 98.6277H306.182L306.997 97.8133V95.4884L306.182 94.6592H302.51L301.681 95.4884V97.8133L302.495 98.6277ZM311.909 99.8271L310.354 98.2723V90.4686L311.909 88.9137H316.648L318.203 90.4686V98.2723L316.648 99.8271H311.909ZM312.516 98.6277H316.041L316.855 97.8133V90.9276L316.041 90.1132H312.516L311.702 90.9276L311.717 97.8133L312.516 98.6277Z" fill="black"/>
<path d="M239.594 72.3625H237.7V71.5992H242.28V72.3625H240.395V78.3462H239.594V72.3625ZM244.589 78.497C244.117 78.497 243.693 78.3839 243.316 78.1577C242.939 77.9316 242.644 77.6237 242.431 77.2343C242.223 76.8448 242.12 76.4144 242.12 75.9433C242.12 75.4721 242.223 75.0418 242.431 74.6523C242.644 74.2628 242.939 73.955 243.316 73.7288C243.693 73.5027 244.117 73.3896 244.589 73.3896C245.06 73.3896 245.484 73.5027 245.861 73.7288C246.238 73.955 246.53 74.2628 246.737 74.6523C246.951 75.0418 247.057 75.4721 247.057 75.9433C247.057 76.4144 246.951 76.8448 246.737 77.2343C246.53 77.6237 246.238 77.9316 245.861 78.1577C245.484 78.3839 245.06 78.497 244.589 78.497ZM244.589 77.7714C244.884 77.7714 245.157 77.6991 245.408 77.5546C245.666 77.4039 245.87 77.1903 246.021 76.9139C246.178 76.6374 246.256 76.3139 246.256 75.9433C246.256 75.5726 246.178 75.2491 246.021 74.9727C245.87 74.6963 245.666 74.4858 245.408 74.3413C245.157 74.1906 244.884 74.1152 244.589 74.1152C244.293 74.1152 244.017 74.1906 243.759 74.3413C243.502 74.4858 243.294 74.6963 243.137 74.9727C242.987 75.2491 242.911 75.5726 242.911 75.9433C242.911 76.3139 242.987 76.6374 243.137 76.9139C243.294 77.1903 243.502 77.4039 243.759 77.5546C244.017 77.6991 244.293 77.7714 244.589 77.7714ZM249.696 78.4216C249.502 78.4216 249.32 78.3902 249.15 78.3273C248.987 78.2645 248.848 78.1797 248.735 78.0729C248.61 77.9536 248.515 77.8154 248.453 77.6583C248.39 77.5012 248.358 77.3096 248.358 77.0835V74.2659H247.52V73.5404H248.358V72.1834H249.159V73.5404H250.328V74.2659H249.159V76.8856C249.159 77.1494 249.21 77.3442 249.31 77.4698C249.429 77.608 249.602 77.6771 249.828 77.6771C250.011 77.6771 250.186 77.6237 250.356 77.5169V78.2991C250.262 78.3431 250.164 78.3745 250.064 78.3933C249.97 78.4122 249.847 78.4216 249.696 78.4216ZM252.744 78.497C252.393 78.497 252.078 78.4279 251.802 78.2897C251.526 78.1514 251.312 77.963 251.161 77.7243C251.01 77.4793 250.935 77.2028 250.935 76.895C250.935 76.3862 251.127 75.9904 251.51 75.7077C251.893 75.4187 252.377 75.2742 252.961 75.2742C253.25 75.2742 253.517 75.3056 253.762 75.3685C254.013 75.4313 254.205 75.5035 254.337 75.5852V75.2931C254.337 74.935 254.211 74.6492 253.96 74.4356C253.709 74.2157 253.391 74.1057 253.008 74.1057C252.738 74.1057 252.49 74.1654 252.264 74.2848C252.038 74.3979 251.859 74.5581 251.727 74.7654L251.124 74.3131C251.312 74.0241 251.57 73.7979 251.896 73.6346C252.229 73.4713 252.597 73.3896 252.999 73.3896C253.652 73.3896 254.164 73.5623 254.535 73.9079C254.912 74.2471 255.1 74.712 255.1 75.3025V78.3462H254.337V77.6583H254.299C254.161 77.8907 253.954 78.0886 253.677 78.252C253.401 78.4153 253.09 78.497 252.744 78.497ZM252.82 77.7902C253.09 77.7902 253.341 77.7211 253.574 77.5829C253.806 77.4447 253.991 77.2594 254.13 77.0269C254.268 76.7945 254.337 76.5401 254.337 76.2637C254.186 76.1631 254.001 76.0815 253.781 76.0187C253.561 75.9558 253.329 75.9244 253.084 75.9244C252.644 75.9244 252.311 76.0155 252.085 76.1977C251.865 76.3799 251.755 76.6155 251.755 76.9044C251.755 77.1683 251.855 77.3819 252.056 77.5452C252.257 77.7086 252.512 77.7902 252.82 77.7902ZM256.214 71.5992H257.015V78.3462H256.214V71.5992ZM262.531 78.497C262.073 78.497 261.661 78.387 261.297 78.1672C260.933 77.9473 260.647 77.6457 260.439 77.2625C260.238 76.873 260.138 76.4364 260.138 75.9527C260.138 75.4878 260.232 75.0606 260.421 74.6711C260.615 74.2816 260.889 73.9707 261.24 73.7382C261.592 73.5058 262.001 73.3896 262.465 73.3896C262.937 73.3896 263.345 73.4964 263.69 73.71C264.036 73.9173 264.3 74.2063 264.482 74.5769C264.67 74.9476 264.765 75.3716 264.765 75.849C264.765 75.9433 264.755 76.0249 264.736 76.094H260.939C260.958 76.4584 261.046 76.7662 261.203 77.0175C261.36 77.2688 261.558 77.4573 261.796 77.5829C262.041 77.7086 262.296 77.7714 262.56 77.7714C263.175 77.7714 263.65 77.4824 263.983 76.9044L264.661 77.2343C264.454 77.6237 264.171 77.9316 263.813 78.1577C263.461 78.3839 263.034 78.497 262.531 78.497ZM263.917 75.4344C263.904 75.2334 263.847 75.0324 263.747 74.8313C263.646 74.6303 263.486 74.4607 263.266 74.3225C263.053 74.1843 262.783 74.1152 262.456 74.1152C262.079 74.1152 261.759 74.2377 261.495 74.4827C261.237 74.7214 261.068 75.0386 260.986 75.4344H263.917ZM267.284 78.497C266.932 78.497 266.618 78.4279 266.342 78.2897C266.065 78.1514 265.852 77.963 265.701 77.7243C265.55 77.4793 265.475 77.2028 265.475 76.895C265.475 76.3862 265.666 75.9904 266.05 75.7077C266.433 75.4187 266.917 75.2742 267.501 75.2742C267.79 75.2742 268.057 75.3056 268.302 75.3685C268.553 75.4313 268.745 75.5035 268.877 75.5852V75.2931C268.877 74.935 268.751 74.6492 268.5 74.4356C268.248 74.2157 267.931 74.1057 267.548 74.1057C267.278 74.1057 267.03 74.1654 266.803 74.2848C266.577 74.3979 266.398 74.5581 266.266 74.7654L265.663 74.3131C265.852 74.0241 266.109 73.7979 266.436 73.6346C266.769 73.4713 267.136 73.3896 267.538 73.3896C268.192 73.3896 268.704 73.5623 269.074 73.9079C269.451 74.2471 269.64 74.712 269.64 75.3025V78.3462H268.877V77.6583H268.839C268.701 77.8907 268.493 78.0886 268.217 78.252C267.941 78.4153 267.63 78.497 267.284 78.497ZM267.359 77.7902C267.63 77.7902 267.881 77.7211 268.113 77.5829C268.346 77.4447 268.531 77.2594 268.669 77.0269C268.807 76.7945 268.877 76.5401 268.877 76.2637C268.726 76.1631 268.54 76.0815 268.321 76.0187C268.101 75.9558 267.868 75.9244 267.623 75.9244C267.184 75.9244 266.851 76.0155 266.624 76.1977C266.405 76.3799 266.295 76.6155 266.295 76.9044C266.295 77.1683 266.395 77.3819 266.596 77.5452C266.797 77.7086 267.052 77.7902 267.359 77.7902ZM270.754 73.5404H271.517V74.3131H271.555C271.649 74.0492 271.832 73.8325 272.102 73.6629C272.372 73.487 272.654 73.399 272.95 73.399C273.17 73.399 273.358 73.4304 273.515 73.4932V74.3602C273.314 74.2597 273.088 74.2094 272.837 74.2094C272.604 74.2094 272.391 74.2754 272.196 74.4073C272.001 74.5392 271.844 74.7183 271.725 74.9444C271.612 75.1643 271.555 75.403 271.555 75.6606V78.3462H270.754V73.5404ZM274.288 73.5404H275.051V74.2471H275.089C275.221 74.0084 275.431 73.8073 275.72 73.644C276.009 73.4744 276.317 73.3896 276.644 73.3896C277.222 73.3896 277.661 73.5592 277.963 73.8984C278.271 74.2314 278.425 74.6868 278.425 75.2648V78.3462H277.624V75.3873C277.624 74.9413 277.517 74.6177 277.303 74.4167C277.09 74.2157 276.798 74.1152 276.427 74.1152C276.169 74.1152 275.937 74.1874 275.73 74.3319C275.529 74.4764 275.372 74.668 275.258 74.9067C275.145 75.1392 275.089 75.3842 275.089 75.6417V78.3462H274.288V73.5404ZM280.041 72.6546C279.884 72.6546 279.749 72.598 279.636 72.485C279.523 72.3719 279.466 72.2368 279.466 72.0798C279.466 71.9227 279.523 71.7908 279.636 71.684C279.749 71.5709 279.884 71.5144 280.041 71.5144C280.198 71.5144 280.333 71.5709 280.446 71.684C280.559 71.7908 280.616 71.9227 280.616 72.0798C280.616 72.2368 280.559 72.3719 280.446 72.485C280.34 72.598 280.204 72.6546 280.041 72.6546ZM279.645 73.5404H280.437V78.3462H279.645V73.5404ZM281.696 73.5404H282.459V74.2471H282.497C282.629 74.0084 282.839 73.8073 283.128 73.644C283.417 73.4744 283.725 73.3896 284.052 73.3896C284.629 73.3896 285.069 73.5592 285.371 73.8984C285.679 74.2314 285.833 74.6868 285.833 75.2648V78.3462H285.032V75.3873C285.032 74.9413 284.925 74.6177 284.711 74.4167C284.498 74.2157 284.205 74.1152 283.835 74.1152C283.577 74.1152 283.345 74.1874 283.137 74.3319C282.936 74.4764 282.779 74.668 282.666 74.9067C282.553 75.1392 282.497 75.3842 282.497 75.6417V78.3462H281.696V73.5404ZM289.043 80.5324C288.477 80.5324 288.009 80.4005 287.639 80.1366C287.274 79.8728 287.029 79.5555 286.904 79.1849L287.629 78.8739C287.736 79.1503 287.912 79.3733 288.157 79.5429C288.408 79.7188 288.703 79.8068 289.043 79.8068C289.539 79.8068 289.922 79.6623 290.192 79.3733C290.469 79.0843 290.607 78.676 290.607 78.1483V77.6112H290.569C290.412 77.8562 290.189 78.0572 289.9 78.2143C289.617 78.365 289.294 78.4404 288.93 78.4404C288.515 78.4404 288.135 78.3336 287.789 78.12C287.45 77.9064 287.18 77.608 286.979 77.2248C286.778 76.8416 286.677 76.405 286.677 75.915C286.677 75.4313 286.778 74.9978 286.979 74.6146C287.18 74.2251 287.45 73.9236 287.789 73.71C288.135 73.4964 288.515 73.3896 288.93 73.3896C289.294 73.3896 289.617 73.4681 289.9 73.6252C290.189 73.7759 290.412 73.977 290.569 74.2282H290.607V73.5404H291.37V78.1577C291.37 78.9304 291.157 79.5178 290.729 79.9199C290.302 80.3282 289.74 80.5324 289.043 80.5324ZM289.043 77.7148C289.332 77.7148 289.592 77.6426 289.825 77.4981C290.064 77.3536 290.252 77.1463 290.39 76.8762C290.535 76.606 290.607 76.2856 290.607 75.915C290.607 75.5381 290.535 75.2145 290.39 74.9444C290.252 74.6743 290.064 74.4701 289.825 74.3319C289.592 74.1874 289.332 74.1152 289.043 74.1152C288.754 74.1152 288.49 74.1874 288.251 74.3319C288.012 74.4764 287.821 74.6837 287.676 74.9538C287.538 75.224 287.469 75.5444 287.469 75.915C287.469 76.2856 287.538 76.6092 287.676 76.8856C287.821 77.1557 288.012 77.363 288.251 77.5075C288.49 77.6457 288.754 77.7148 289.043 77.7148ZM294.186 78.497C293.671 78.497 293.24 78.3776 292.895 78.1389C292.549 77.8939 292.304 77.5829 292.16 77.206L292.876 76.8856C292.995 77.1746 293.171 77.3976 293.404 77.5546C293.642 77.7117 293.903 77.7902 294.186 77.7902C294.487 77.7902 294.745 77.7305 294.959 77.6112C295.172 77.4855 295.279 77.3096 295.279 77.0835C295.279 76.8825 295.194 76.7223 295.024 76.6029C294.855 76.4773 294.588 76.3705 294.224 76.2825L293.639 76.1317C293.256 76.0375 292.942 75.8773 292.697 75.6512C292.452 75.425 292.329 75.1329 292.329 74.7748C292.329 74.4984 292.411 74.2565 292.574 74.0492C292.744 73.8356 292.967 73.6723 293.244 73.5592C293.52 73.4461 293.818 73.3896 294.139 73.3896C294.56 73.3896 294.933 73.4807 295.26 73.6629C295.593 73.845 295.829 74.0995 295.967 74.4261L295.269 74.7465C295.056 74.3193 294.676 74.1057 294.129 74.1057C293.865 74.1057 293.633 74.1686 293.432 74.2942C293.237 74.4136 293.14 74.5675 293.14 74.7559C293.14 74.9318 293.209 75.0763 293.347 75.1894C293.485 75.2962 293.693 75.3842 293.969 75.4533L294.666 75.6323C295.138 75.7517 295.493 75.9307 295.731 76.1694C295.97 76.4019 296.089 76.6877 296.089 77.0269C296.089 77.3222 296.005 77.5829 295.835 77.8091C295.665 78.0289 295.436 78.1986 295.147 78.3179C294.858 78.4373 294.538 78.497 294.186 78.497Z" fill="#6F767E"/>
<rect opacity="0.1" x="190.434" y="69.3462" width="33.6543" height="33.6543" rx="6.62281" fill="#FA5F1C"/>
<path fill-rule="evenodd" clip-rule="evenodd" d="M213.056 85.3934L211.09 83.6113L208.451 90.6036L213.056 85.3934ZM208.36 87.3438L210.248 82.3413C210.248 82.34 210.249 82.3388 210.249 82.3375L210.729 81.0667L208.36 80.15V87.3438ZM207.272 90.2296H203.638L206.809 91.4565L207.272 90.2296ZM206.598 92.7009L203.207 91.3886L205.734 93.6781L206.598 92.7009ZM200.942 88.9933H207.124V77.867H200.942V88.9933ZM214.387 85.7544L206.246 94.9658C206.136 95.09 205.982 95.1648 205.817 95.1735C205.806 95.1741 205.794 95.1747 205.782 95.1747C205.63 95.1747 205.481 95.1179 205.367 95.0146L199.909 90.0684C199.907 90.0665 199.906 90.0634 199.903 90.0609C199.9 90.0579 199.896 90.056 199.893 90.0529C199.857 90.0171 199.833 89.9726 199.806 89.9293C199.793 89.907 199.773 89.8879 199.762 89.865C199.761 89.8619 199.759 89.8607 199.759 89.8582C199.745 89.8279 199.744 89.7927 199.736 89.7605C199.735 89.7568 199.734 89.7525 199.733 89.7482C199.725 89.7098 199.709 89.674 199.708 89.6351C199.707 89.6301 199.708 89.6252 199.708 89.6202C199.708 89.6171 199.706 89.6147 199.706 89.6116V77.249C199.706 76.9072 199.983 76.6309 200.324 76.6309H207.742C208.084 76.6309 208.36 76.9072 208.36 77.249V78.824L211.747 80.1344C212.064 80.2568 212.222 80.6122 212.102 80.9293L211.559 82.3677L214.338 84.8872C214.589 85.1147 214.61 85.501 214.387 85.7544ZM203.415 82.5031C203.415 82.6737 203.553 82.8122 203.724 82.8122H204.342C205.194 82.8122 205.887 83.5051 205.887 84.3575C205.887 85.1042 205.356 85.7279 204.651 85.8713V86.521C204.651 86.8628 204.375 87.1391 204.033 87.1391C203.692 87.1391 203.415 86.8628 203.415 86.521V85.9028H202.796C202.455 85.9028 202.178 85.6265 202.178 85.2847C202.178 84.9429 202.455 84.6666 202.796 84.6666H204.342C204.512 84.6666 204.651 84.5281 204.651 84.3575C204.651 84.1875 204.512 84.0484 204.342 84.0484H203.724C202.872 84.0484 202.178 83.3555 202.178 82.5031C202.178 81.7564 202.711 81.1327 203.415 80.9893V80.3397C203.415 79.9979 203.692 79.7215 204.033 79.7215C204.375 79.7215 204.651 79.9979 204.651 80.3397V80.9578H205.269C205.611 80.9578 205.887 81.2341 205.887 81.5759C205.887 81.9178 205.611 82.1941 205.269 82.1941H203.724C203.553 82.1941 203.415 82.3331 203.415 82.5031Z" fill="#FA5F1C"/>
<path d="M99.8163 176.747V175.118H96.8103V173.874H99.8163V170.068H97.9653L96.4253 168.528V165.744L97.9653 164.204H99.8163V162.575H101.119V164.204H103.77V165.448H101.119V168.884H102.793L104.333 170.424V173.563L102.793 175.118H101.119V176.747H99.8163ZM98.5724 168.884H99.8163V165.448H98.5872L97.7728 166.263V168.084L98.5724 168.884ZM101.119 173.874H102.171L102.985 173.059V170.883L102.186 170.068H101.119V173.874ZM107.816 175.118L106.261 173.563V165.759L107.816 164.204H112.554L114.109 165.759V173.563L112.554 175.118H107.816ZM108.423 173.918H111.947L112.761 173.104V166.218L111.947 165.404H108.423L107.608 166.218L107.623 173.104L108.423 173.918ZM116.049 175.118V173.37H117.352V175.118H116.049ZM120.989 175.118L119.435 173.563V165.759L120.989 164.204H125.728L127.283 165.759V173.563L125.728 175.118H120.989ZM121.597 173.918H125.121L125.935 173.104V166.218L125.121 165.404H121.597L120.782 166.218L120.797 173.104L121.597 173.918ZM130.852 175.118L129.297 173.563V165.759L130.852 164.204H135.59L137.145 165.759V173.563L135.59 175.118H130.852ZM131.459 173.918H134.983L135.798 173.104V166.218L134.983 165.404H131.459L130.644 166.218L130.659 173.104L131.459 173.918Z" fill="black"/>
<path d="M96.0067 146.434H96.8077V148.422L96.77 149.082H96.8077C96.9396 148.837 97.147 148.632 97.4297 148.469C97.7186 148.306 98.0327 148.224 98.372 148.224C98.9562 148.224 99.4022 148.397 99.7101 148.742C100.018 149.082 100.172 149.534 100.172 150.099V153.181H99.3708V150.222C99.3708 149.788 99.2609 149.468 99.041 149.261C98.8211 149.053 98.5353 148.95 98.1835 148.95C97.9322 148.95 97.6998 149.025 97.4862 149.176C97.2789 149.327 97.1124 149.521 96.9868 149.76C96.8674 149.999 96.8077 150.247 96.8077 150.504V153.181H96.0067V146.434ZM102.816 153.331C102.464 153.331 102.15 153.262 101.873 153.124C101.597 152.986 101.383 152.797 101.233 152.559C101.082 152.314 101.006 152.037 101.006 151.729C101.006 151.221 101.198 150.825 101.581 150.542C101.964 150.253 102.448 150.109 103.032 150.109C103.321 150.109 103.588 150.14 103.833 150.203C104.085 150.266 104.276 150.338 104.408 150.42V150.128C104.408 149.769 104.283 149.484 104.031 149.27C103.78 149.05 103.463 148.94 103.08 148.94C102.809 148.94 102.561 149 102.335 149.119C102.109 149.232 101.93 149.393 101.798 149.6L101.195 149.148C101.383 148.859 101.641 148.632 101.968 148.469C102.301 148.306 102.668 148.224 103.07 148.224C103.723 148.224 104.235 148.397 104.606 148.742C104.983 149.082 105.171 149.546 105.171 150.137V153.181H104.408V152.493H104.371C104.232 152.725 104.025 152.923 103.749 153.086C103.472 153.25 103.161 153.331 102.816 153.331ZM102.891 152.625C103.161 152.625 103.412 152.556 103.645 152.417C103.877 152.279 104.063 152.094 104.201 151.861C104.339 151.629 104.408 151.375 104.408 151.098C104.257 150.998 104.072 150.916 103.852 150.853C103.632 150.79 103.4 150.759 103.155 150.759C102.715 150.759 102.382 150.85 102.156 151.032C101.936 151.214 101.826 151.45 101.826 151.739C101.826 152.003 101.927 152.216 102.128 152.38C102.329 152.543 102.583 152.625 102.891 152.625ZM106.286 148.375H107.049V149.148H107.087C107.181 148.884 107.363 148.667 107.633 148.497C107.903 148.321 108.186 148.233 108.481 148.233C108.701 148.233 108.89 148.265 109.047 148.328V149.195C108.846 149.094 108.62 149.044 108.368 149.044C108.136 149.044 107.922 149.11 107.728 149.242C107.533 149.374 107.376 149.553 107.256 149.779C107.143 149.999 107.087 150.237 107.087 150.495V153.181H106.286V148.375ZM109.448 148.375H110.306L111.795 152.238H111.813L113.321 148.375H114.16L112.2 153.181H111.389L109.448 148.375ZM116.817 153.331C116.359 153.331 115.947 153.221 115.583 153.002C115.219 152.782 114.933 152.48 114.725 152.097C114.524 151.708 114.424 151.271 114.424 150.787C114.424 150.322 114.518 149.895 114.707 149.506C114.901 149.116 115.175 148.805 115.526 148.573C115.878 148.34 116.287 148.224 116.751 148.224C117.223 148.224 117.631 148.331 117.976 148.544C118.322 148.752 118.586 149.041 118.768 149.411C118.956 149.782 119.051 150.206 119.051 150.684C119.051 150.778 119.041 150.859 119.022 150.929H115.225C115.244 151.293 115.332 151.601 115.489 151.852C115.646 152.103 115.844 152.292 116.082 152.417C116.327 152.543 116.582 152.606 116.846 152.606C117.461 152.606 117.936 152.317 118.269 151.739L118.947 152.069C118.74 152.458 118.457 152.766 118.099 152.992C117.747 153.218 117.32 153.331 116.817 153.331ZM118.203 150.269C118.19 150.068 118.133 149.867 118.033 149.666C117.932 149.465 117.772 149.295 117.552 149.157C117.339 149.019 117.069 148.95 116.742 148.95C116.365 148.95 116.045 149.072 115.781 149.317C115.523 149.556 115.354 149.873 115.272 150.269H118.203ZM121.711 153.331C121.196 153.331 120.766 153.212 120.42 152.973C120.075 152.728 119.83 152.417 119.685 152.04L120.402 151.72C120.521 152.009 120.697 152.232 120.929 152.389C121.168 152.546 121.429 152.625 121.711 152.625C122.013 152.625 122.271 152.565 122.484 152.446C122.698 152.32 122.805 152.144 122.805 151.918C122.805 151.717 122.72 151.557 122.55 151.437C122.38 151.312 122.113 151.205 121.749 151.117L121.165 150.966C120.782 150.872 120.468 150.712 120.223 150.486C119.978 150.259 119.855 149.967 119.855 149.609C119.855 149.333 119.937 149.091 120.1 148.884C120.27 148.67 120.493 148.507 120.769 148.394C121.046 148.281 121.344 148.224 121.664 148.224C122.085 148.224 122.459 148.315 122.786 148.497C123.119 148.68 123.354 148.934 123.492 149.261L122.795 149.581C122.581 149.154 122.201 148.94 121.655 148.94C121.391 148.94 121.159 149.003 120.958 149.129C120.763 149.248 120.665 149.402 120.665 149.59C120.665 149.766 120.735 149.911 120.873 150.024C121.011 150.131 121.218 150.219 121.495 150.288L122.192 150.467C122.663 150.586 123.018 150.765 123.257 151.004C123.496 151.236 123.615 151.522 123.615 151.861C123.615 152.157 123.53 152.417 123.36 152.644C123.191 152.863 122.962 153.033 122.673 153.152C122.384 153.272 122.063 153.331 121.711 153.331ZM126.289 153.256C126.094 153.256 125.912 153.225 125.742 153.162C125.579 153.099 125.441 153.014 125.328 152.907C125.202 152.788 125.108 152.65 125.045 152.493C124.982 152.336 124.951 152.144 124.951 151.918V149.1H124.112V148.375H124.951V147.018H125.752V148.375H126.92V149.1H125.752V151.72C125.752 151.984 125.802 152.179 125.903 152.304C126.022 152.443 126.195 152.512 126.421 152.512C126.603 152.512 126.779 152.458 126.949 152.351V153.134C126.854 153.178 126.757 153.209 126.656 153.228C126.562 153.247 126.44 153.256 126.289 153.256ZM129.82 153.331C129.362 153.331 128.95 153.221 128.586 153.002C128.222 152.782 127.936 152.48 127.728 152.097C127.527 151.708 127.427 151.271 127.427 150.787C127.427 150.322 127.521 149.895 127.71 149.506C127.904 149.116 128.178 148.805 128.529 148.573C128.881 148.34 129.289 148.224 129.754 148.224C130.226 148.224 130.634 148.331 130.979 148.544C131.325 148.752 131.589 149.041 131.771 149.411C131.959 149.782 132.054 150.206 132.054 150.684C132.054 150.778 132.044 150.859 132.025 150.929H128.228C128.247 151.293 128.335 151.601 128.492 151.852C128.649 152.103 128.847 152.292 129.085 152.417C129.33 152.543 129.585 152.606 129.849 152.606C130.464 152.606 130.939 152.317 131.271 151.739L131.95 152.069C131.743 152.458 131.46 152.766 131.102 152.992C130.75 153.218 130.323 153.331 129.82 153.331ZM131.206 150.269C131.193 150.068 131.136 149.867 131.036 149.666C130.935 149.465 130.775 149.295 130.555 149.157C130.342 149.019 130.072 148.95 129.745 148.95C129.368 148.95 129.048 149.072 128.784 149.317C128.526 149.556 128.357 149.873 128.275 150.269H131.206ZM135.072 153.331C134.645 153.331 134.256 153.221 133.904 153.002C133.558 152.782 133.285 152.48 133.084 152.097C132.883 151.708 132.783 151.268 132.783 150.778C132.783 150.294 132.883 149.857 133.084 149.468C133.285 149.078 133.558 148.774 133.904 148.554C134.256 148.334 134.645 148.224 135.072 148.224C135.443 148.224 135.773 148.309 136.062 148.478C136.351 148.642 136.571 148.846 136.721 149.091H136.759L136.721 148.422V146.434H137.522V153.181H136.759V152.474H136.721C136.571 152.713 136.351 152.917 136.062 153.086C135.773 153.25 135.443 153.331 135.072 153.331ZM135.167 152.606C135.449 152.606 135.71 152.53 135.949 152.38C136.194 152.229 136.389 152.015 136.533 151.739C136.684 151.462 136.759 151.142 136.759 150.778C136.759 150.413 136.684 150.093 136.533 149.817C136.389 149.54 136.194 149.327 135.949 149.176C135.71 149.025 135.449 148.95 135.167 148.95C134.89 148.95 134.63 149.025 134.385 149.176C134.14 149.327 133.942 149.543 133.791 149.826C133.646 150.102 133.574 150.42 133.574 150.778C133.574 151.136 133.646 151.456 133.791 151.739C133.942 152.015 134.14 152.229 134.385 152.38C134.63 152.53 134.89 152.606 135.167 152.606ZM140.896 146.434H141.697V153.181H140.896V146.434ZM145.052 153.331C144.581 153.331 144.157 153.218 143.78 152.992C143.403 152.766 143.108 152.458 142.894 152.069C142.687 151.679 142.583 151.249 142.583 150.778C142.583 150.307 142.687 149.876 142.894 149.487C143.108 149.097 143.403 148.789 143.78 148.563C144.157 148.337 144.581 148.224 145.052 148.224C145.523 148.224 145.947 148.337 146.324 148.563C146.701 148.789 146.993 149.097 147.2 149.487C147.414 149.876 147.521 150.307 147.521 150.778C147.521 151.249 147.414 151.679 147.2 152.069C146.993 152.458 146.701 152.766 146.324 152.992C145.947 153.218 145.523 153.331 145.052 153.331ZM145.052 152.606C145.347 152.606 145.621 152.534 145.872 152.389C146.129 152.238 146.334 152.025 146.484 151.748C146.641 151.472 146.72 151.148 146.72 150.778C146.72 150.407 146.641 150.084 146.484 149.807C146.334 149.531 146.129 149.32 145.872 149.176C145.621 149.025 145.347 148.95 145.052 148.95C144.757 148.95 144.48 149.025 144.223 149.176C143.965 149.32 143.758 149.531 143.601 149.807C143.45 150.084 143.375 150.407 143.375 150.778C143.375 151.148 143.45 151.472 143.601 151.748C143.758 152.025 143.965 152.238 144.223 152.389C144.48 152.534 144.757 152.606 145.052 152.606ZM150.082 153.331C149.567 153.331 149.137 153.212 148.791 152.973C148.446 152.728 148.201 152.417 148.056 152.04L148.772 151.72C148.892 152.009 149.068 152.232 149.3 152.389C149.539 152.546 149.8 152.625 150.082 152.625C150.384 152.625 150.641 152.565 150.855 152.446C151.069 152.32 151.175 152.144 151.175 151.918C151.175 151.717 151.091 151.557 150.921 151.437C150.751 151.312 150.484 151.205 150.12 151.117L149.536 150.966C149.153 150.872 148.838 150.712 148.593 150.486C148.348 150.259 148.226 149.967 148.226 149.609C148.226 149.333 148.308 149.091 148.471 148.884C148.641 148.67 148.864 148.507 149.14 148.394C149.416 148.281 149.715 148.224 150.035 148.224C150.456 148.224 150.83 148.315 151.157 148.497C151.489 148.68 151.725 148.934 151.863 149.261L151.166 149.581C150.952 149.154 150.572 148.94 150.026 148.94C149.762 148.94 149.529 149.003 149.328 149.129C149.134 149.248 149.036 149.402 149.036 149.59C149.036 149.766 149.105 149.911 149.244 150.024C149.382 150.131 149.589 150.219 149.866 150.288L150.563 150.467C151.034 150.586 151.389 150.765 151.628 151.004C151.866 151.236 151.986 151.522 151.986 151.861C151.986 152.157 151.901 152.417 151.731 152.644C151.562 152.863 151.332 153.033 151.043 153.152C150.754 153.272 150.434 153.331 150.082 153.331ZM154.536 153.331C154.021 153.331 153.591 153.212 153.245 152.973C152.9 152.728 152.655 152.417 152.51 152.04L153.226 151.72C153.346 152.009 153.522 152.232 153.754 152.389C153.993 152.546 154.254 152.625 154.536 152.625C154.838 152.625 155.095 152.565 155.309 152.446C155.522 152.32 155.629 152.144 155.629 151.918C155.629 151.717 155.544 151.557 155.375 151.437C155.205 151.312 154.938 151.205 154.574 151.117L153.99 150.966C153.606 150.872 153.292 150.712 153.047 150.486C152.802 150.259 152.68 149.967 152.68 149.609C152.68 149.333 152.761 149.091 152.925 148.884C153.094 148.67 153.317 148.507 153.594 148.394C153.87 148.281 154.169 148.224 154.489 148.224C154.91 148.224 155.284 148.315 155.61 148.497C155.943 148.68 156.179 148.934 156.317 149.261L155.62 149.581C155.406 149.154 155.026 148.94 154.48 148.94C154.216 148.94 153.983 149.003 153.782 149.129C153.588 149.248 153.49 149.402 153.49 149.59C153.49 149.766 153.559 149.911 153.698 150.024C153.836 150.131 154.043 150.219 154.319 150.288L155.017 150.467C155.488 150.586 155.843 150.765 156.082 151.004C156.32 151.236 156.44 151.522 156.44 151.861C156.44 152.157 156.355 152.417 156.185 152.644C156.016 152.863 155.786 153.033 155.497 153.152C155.208 153.272 154.888 153.331 154.536 153.331ZM159.498 153.331C159.039 153.331 158.628 153.221 158.263 153.002C157.899 152.782 157.613 152.48 157.406 152.097C157.205 151.708 157.104 151.271 157.104 150.787C157.104 150.322 157.199 149.895 157.387 149.506C157.582 149.116 157.855 148.805 158.207 148.573C158.559 148.34 158.967 148.224 159.432 148.224C159.903 148.224 160.311 148.331 160.657 148.544C161.002 148.752 161.266 149.041 161.448 149.411C161.637 149.782 161.731 150.206 161.731 150.684C161.731 150.778 161.722 150.859 161.703 150.929H157.905C157.924 151.293 158.012 151.601 158.169 151.852C158.326 152.103 158.524 152.292 158.763 152.417C159.008 152.543 159.262 152.606 159.526 152.606C160.142 152.606 160.616 152.317 160.949 151.739L161.628 152.069C161.42 152.458 161.138 152.766 160.779 152.992C160.428 153.218 160 153.331 159.498 153.331ZM160.883 150.269C160.871 150.068 160.814 149.867 160.713 149.666C160.613 149.465 160.453 149.295 160.233 149.157C160.019 149.019 159.749 148.95 159.423 148.95C159.046 148.95 158.725 149.072 158.461 149.317C158.204 149.556 158.034 149.873 157.952 150.269H160.883ZM164.392 153.331C163.877 153.331 163.446 153.212 163.101 152.973C162.755 152.728 162.51 152.417 162.366 152.04L163.082 151.72C163.201 152.009 163.377 152.232 163.61 152.389C163.849 152.546 164.109 152.625 164.392 152.625C164.693 152.625 164.951 152.565 165.165 152.446C165.378 152.32 165.485 152.144 165.485 151.918C165.485 151.717 165.4 151.557 165.231 151.437C165.061 151.312 164.794 151.205 164.43 151.117L163.845 150.966C163.462 150.872 163.148 150.712 162.903 150.486C162.658 150.259 162.536 149.967 162.536 149.609C162.536 149.333 162.617 149.091 162.781 148.884C162.95 148.67 163.173 148.507 163.45 148.394C163.726 148.281 164.024 148.224 164.345 148.224C164.766 148.224 165.139 148.315 165.466 148.497C165.799 148.68 166.035 148.934 166.173 149.261L165.476 149.581C165.262 149.154 164.882 148.94 164.335 148.94C164.072 148.94 163.839 149.003 163.638 149.129C163.443 149.248 163.346 149.402 163.346 149.59C163.346 149.766 163.415 149.911 163.553 150.024C163.691 150.131 163.899 150.219 164.175 150.288L164.873 150.467C165.344 150.586 165.699 150.765 165.937 151.004C166.176 151.236 166.295 151.522 166.295 151.861C166.295 152.157 166.211 152.417 166.041 152.644C165.871 152.863 165.642 153.033 165.353 153.152C165.064 153.272 164.744 153.331 164.392 153.331Z" fill="#6F767E"/>
<rect opacity="0.1" x="47.0669" y="144.181" width="33.6543" height="33.6543" rx="6.86284" fill="#1A55AF"/>
<path fill-rule="evenodd" clip-rule="evenodd" d="M57.4991 156.854H55.8978C55.5436 156.854 55.2573 157.14 55.2573 157.494C55.2573 157.849 55.5436 158.135 55.8978 158.135H56.5383V158.775C56.5383 159.13 56.8247 159.416 57.1789 159.416C57.5324 159.416 57.8194 159.13 57.8194 158.775V158.102C58.5489 157.954 59.1004 157.307 59.1004 156.534C59.1004 155.65 58.3817 154.932 57.4991 154.932H56.8586C56.6818 154.932 56.5383 154.788 56.5383 154.612C56.5383 154.436 56.6818 154.292 56.8586 154.292H58.4599C58.8134 154.292 59.1004 154.005 59.1004 153.651C59.1004 153.297 58.8134 153.011 58.4599 153.011H57.8194V152.37C57.8194 152.016 57.5324 151.73 57.1789 151.73C56.8247 151.73 56.5383 152.016 56.5383 152.37V153.043C55.8082 153.192 55.2573 153.838 55.2573 154.612C55.2573 155.495 55.9753 156.213 56.8586 156.213H57.4991C57.6752 156.213 57.8194 156.357 57.8194 156.534C57.8194 156.71 57.6752 156.854 57.4991 156.854Z" fill="#1A55AF"/>
<path fill-rule="evenodd" clip-rule="evenodd" d="M68.0673 166.462H58.4597C58.1068 166.462 57.8192 166.175 57.8192 165.821V162.884L58.6473 163.712C58.8978 163.962 59.3026 163.962 59.553 163.712C59.8035 163.461 59.8035 163.057 59.553 162.806L57.6315 160.885C57.3811 160.634 56.9763 160.634 56.7258 160.885L54.8043 162.806C54.5538 163.057 54.5538 163.461 54.8043 163.712C55.0547 163.962 55.4595 163.962 55.71 163.712L56.5381 162.884V165.821C56.5381 166.88 57.4003 167.743 58.4597 167.743H68.0673C68.4209 167.743 68.7078 167.456 68.7078 167.102C68.7078 166.748 68.4209 166.462 68.0673 166.462Z" fill="#1A55AF"/>
<path fill-rule="evenodd" clip-rule="evenodd" d="M70.9494 165.821H72.5507C72.9049 165.821 73.1912 165.535 73.1912 165.181C73.1912 164.826 72.9049 164.54 72.5507 164.54H71.9102V163.9C71.9102 163.545 71.6239 163.259 71.2697 163.259C70.9161 163.259 70.6292 163.545 70.6292 163.9V164.573C69.8996 164.721 69.3481 165.368 69.3481 166.141C69.3481 167.025 70.0668 167.743 70.9494 167.743H71.5899C71.7667 167.743 71.9102 167.887 71.9102 168.063C71.9102 168.239 71.7667 168.383 71.5899 168.383H69.9887C69.6351 168.383 69.3481 168.669 69.3481 169.024C69.3481 169.378 69.6351 169.664 69.9887 169.664H70.6292V170.305C70.6292 170.659 70.9161 170.945 71.2697 170.945C71.6239 170.945 71.9102 170.659 71.9102 170.305V169.631C72.6404 169.483 73.1912 168.837 73.1912 168.063C73.1912 167.18 72.4732 166.462 71.5899 166.462H70.9494C70.7733 166.462 70.6292 166.317 70.6292 166.141C70.6292 165.965 70.7733 165.821 70.9494 165.821Z" fill="#1A55AF"/>
<path fill-rule="evenodd" clip-rule="evenodd" d="M73.6445 158.963C73.3941 158.713 72.9893 158.713 72.7388 158.963L71.9106 159.791V156.854C71.9106 155.794 71.0485 154.932 69.9891 154.932H60.3815C60.0279 154.932 59.741 155.219 59.741 155.573C59.741 155.927 60.0279 156.213 60.3815 156.213H69.9891C70.342 156.213 70.6296 156.5 70.6296 156.854V159.791L69.8014 158.963C69.551 158.713 69.1462 158.713 68.8958 158.963C68.6453 159.214 68.6453 159.618 68.8958 159.869L70.8173 161.79C71.0677 162.041 71.4725 162.041 71.723 161.79L73.6445 159.869C73.8949 159.618 73.8949 159.214 73.6445 158.963Z" fill="#1A55AF"/>
<path d="M242.626 176.496V174.867H239.62V173.623H242.626V169.817H240.775L239.235 168.277V165.494L240.775 163.954H242.626V162.325H243.929V163.954H246.58V165.197H243.929V168.633H245.603L247.143 170.173V173.312L245.603 174.867H243.929V176.496H242.626ZM241.382 168.633H242.626V165.197H241.397L240.583 166.012V167.833L241.382 168.633ZM243.929 173.623H244.981L245.795 172.809V170.632L244.996 169.817H243.929V173.623ZM250.315 174.867L248.819 173.357L249.693 172.483L250.892 173.668H254.298L255.112 172.853V170.069L254.298 169.255H249.322V163.954H255.986V165.197H250.67V168.055H254.905L256.46 169.61V173.312L254.905 174.867H250.315ZM257.804 176.496L258.396 173.12H259.699L258.559 176.496H257.804ZM263.026 174.867L261.53 173.357L262.404 172.483L263.603 173.668H267.009L267.823 172.853V170.069L267.009 169.255H262.033V163.954H268.697V165.197H263.381V168.055H267.616L269.171 169.61V173.312L267.616 174.867H263.026ZM272.795 174.867L271.3 173.357L272.173 172.483L273.373 173.668H276.912L277.712 172.853V169.862L276.808 170.765H272.855L271.315 169.21V165.508L272.855 163.954H277.519L279.059 165.508V173.312L277.519 174.867H272.795ZM273.477 169.566H276.705L277.712 168.514V165.967L276.912 165.153H273.477L272.662 165.967V168.751L273.477 169.566ZM282.642 174.867L281.087 173.312V165.508L282.642 163.954H287.514L289.009 165.464L288.136 166.338L286.936 165.153H283.249L282.434 165.967V169.018L283.353 168.115H287.44L288.98 169.669V173.312L287.44 174.867H282.642ZM283.249 173.668H286.832L287.632 172.853V170.114L286.832 169.299H283.397L282.434 170.306V172.853L283.249 173.668ZM290.976 174.867V173.12H292.28V174.867H290.976ZM295.917 174.867L294.362 173.312V170.099L295.428 169.033L294.717 168.292V165.508L296.272 163.954H300.463L302.018 165.508V168.292L301.307 169.033L302.373 170.099V173.312L300.818 174.867H295.917ZM296.642 168.514H300.093L300.67 167.892V165.967L299.871 165.138L296.879 165.153L296.065 165.967V167.892L296.642 168.514ZM296.524 173.668H300.211L301.026 172.853V170.528L300.211 169.699H296.539L295.71 170.528V172.853L296.524 173.668ZM305.938 174.867L304.383 173.312V165.508L305.938 163.954H310.677L312.232 165.508V173.312L310.677 174.867H305.938ZM306.545 173.668H310.07L310.884 172.853V165.967L310.07 165.153H306.545L305.731 165.967L305.746 172.853L306.545 173.668Z" fill="black"/>
<path d="M240.362 147.197H238.468V146.434H243.048V147.197H241.163V153.181H240.362V147.197ZM245.356 153.331C244.885 153.331 244.461 153.218 244.084 152.992C243.707 152.766 243.412 152.458 243.198 152.069C242.991 151.679 242.887 151.249 242.887 150.778C242.887 150.307 242.991 149.876 243.198 149.487C243.412 149.097 243.707 148.789 244.084 148.563C244.461 148.337 244.885 148.224 245.356 148.224C245.827 148.224 246.251 148.337 246.628 148.563C247.005 148.789 247.297 149.097 247.505 149.487C247.718 149.876 247.825 150.307 247.825 150.778C247.825 151.249 247.718 151.679 247.505 152.069C247.297 152.458 247.005 152.766 246.628 152.992C246.251 153.218 245.827 153.331 245.356 153.331ZM245.356 152.606C245.652 152.606 245.925 152.534 246.176 152.389C246.434 152.238 246.638 152.025 246.789 151.748C246.946 151.472 247.024 151.148 247.024 150.778C247.024 150.407 246.946 150.084 246.789 149.807C246.638 149.531 246.434 149.32 246.176 149.176C245.925 149.025 245.652 148.95 245.356 148.95C245.061 148.95 244.785 149.025 244.527 149.176C244.269 149.32 244.062 149.531 243.905 149.807C243.754 150.084 243.679 150.407 243.679 150.778C243.679 151.148 243.754 151.472 243.905 151.748C244.062 152.025 244.269 152.238 244.527 152.389C244.785 152.534 245.061 152.606 245.356 152.606ZM250.464 153.256C250.269 153.256 250.087 153.225 249.918 153.162C249.754 153.099 249.616 153.014 249.503 152.907C249.377 152.788 249.283 152.65 249.22 152.493C249.157 152.336 249.126 152.144 249.126 151.918V149.1H248.287V148.375H249.126V147.018H249.927V148.375H251.095V149.1H249.927V151.72C249.927 151.984 249.977 152.179 250.078 152.304C250.197 152.443 250.37 152.512 250.596 152.512C250.778 152.512 250.954 152.458 251.124 152.351V153.134C251.03 153.178 250.932 153.209 250.832 153.228C250.737 153.247 250.615 153.256 250.464 153.256ZM253.512 153.331C253.16 153.331 252.846 153.262 252.57 153.124C252.293 152.986 252.08 152.797 251.929 152.559C251.778 152.314 251.703 152.037 251.703 151.729C251.703 151.221 251.894 150.825 252.278 150.542C252.661 150.253 253.145 150.109 253.729 150.109C254.018 150.109 254.285 150.14 254.53 150.203C254.781 150.266 254.973 150.338 255.105 150.42V150.128C255.105 149.769 254.979 149.484 254.728 149.27C254.476 149.05 254.159 148.94 253.776 148.94C253.506 148.94 253.258 149 253.031 149.119C252.805 149.232 252.626 149.393 252.494 149.6L251.891 149.148C252.08 148.859 252.337 148.632 252.664 148.469C252.997 148.306 253.364 148.224 253.766 148.224C254.42 148.224 254.932 148.397 255.302 148.742C255.679 149.082 255.868 149.546 255.868 150.137V153.181H255.105V152.493H255.067C254.929 152.725 254.721 152.923 254.445 153.086C254.169 153.25 253.858 153.331 253.512 153.331ZM253.587 152.625C253.858 152.625 254.109 152.556 254.341 152.417C254.574 152.279 254.759 152.094 254.897 151.861C255.035 151.629 255.105 151.375 255.105 151.098C254.954 150.998 254.768 150.916 254.549 150.853C254.329 150.79 254.096 150.759 253.851 150.759C253.412 150.759 253.079 150.85 252.852 151.032C252.633 151.214 252.523 151.45 252.523 151.739C252.523 152.003 252.623 152.216 252.824 152.38C253.025 152.543 253.28 152.625 253.587 152.625ZM256.982 146.434H257.783V153.181H256.982V146.434ZM261.532 149.1H260.646V148.375H261.532V147.857C261.532 147.555 261.601 147.291 261.739 147.065C261.877 146.839 262.063 146.666 262.295 146.547C262.528 146.421 262.785 146.358 263.068 146.358C263.338 146.358 263.574 146.396 263.775 146.471V147.253C263.662 147.209 263.555 147.175 263.454 147.15C263.354 147.118 263.234 147.103 263.096 147.103C262.889 147.103 262.71 147.178 262.559 147.329C262.408 147.473 262.333 147.678 262.333 147.941V148.375H263.567V149.1H262.333V153.181H261.532V149.1ZM266.466 153.331C265.995 153.331 265.571 153.218 265.194 152.992C264.817 152.766 264.522 152.458 264.309 152.069C264.101 151.679 263.998 151.249 263.998 150.778C263.998 150.307 264.101 149.876 264.309 149.487C264.522 149.097 264.817 148.789 265.194 148.563C265.571 148.337 265.995 148.224 266.466 148.224C266.938 148.224 267.362 148.337 267.739 148.563C268.115 148.789 268.408 149.097 268.615 149.487C268.829 149.876 268.935 150.307 268.935 150.778C268.935 151.249 268.829 151.679 268.615 152.069C268.408 152.458 268.115 152.766 267.739 152.992C267.362 153.218 266.938 153.331 266.466 153.331ZM266.466 152.606C266.762 152.606 267.035 152.534 267.286 152.389C267.544 152.238 267.748 152.025 267.899 151.748C268.056 151.472 268.134 151.148 268.134 150.778C268.134 150.407 268.056 150.084 267.899 149.807C267.748 149.531 267.544 149.32 267.286 149.176C267.035 149.025 266.762 148.95 266.466 148.95C266.171 148.95 265.895 149.025 265.637 149.176C265.38 149.32 265.172 149.531 265.015 149.807C264.864 150.084 264.789 150.407 264.789 150.778C264.789 151.148 264.864 151.472 265.015 151.748C265.172 152.025 265.38 152.238 265.637 152.389C265.895 152.534 266.171 152.606 266.466 152.606ZM269.773 148.375H270.537V149.148H270.574C270.669 148.884 270.851 148.667 271.121 148.497C271.391 148.321 271.674 148.233 271.969 148.233C272.189 148.233 272.377 148.265 272.534 148.328V149.195C272.333 149.094 272.107 149.044 271.856 149.044C271.623 149.044 271.41 149.11 271.215 149.242C271.02 149.374 270.863 149.553 270.744 149.779C270.631 149.999 270.574 150.237 270.574 150.495V153.181H269.773V148.375ZM277.033 153.331C276.681 153.331 276.367 153.262 276.091 153.124C275.815 152.986 275.601 152.797 275.45 152.559C275.299 152.314 275.224 152.037 275.224 151.729C275.224 151.221 275.416 150.825 275.799 150.542C276.182 150.253 276.666 150.109 277.25 150.109C277.539 150.109 277.806 150.14 278.051 150.203C278.302 150.266 278.494 150.338 278.626 150.42V150.128C278.626 149.769 278.5 149.484 278.249 149.27C277.998 149.05 277.68 148.94 277.297 148.94C277.027 148.94 276.779 149 276.553 149.119C276.326 149.232 276.147 149.393 276.016 149.6L275.412 149.148C275.601 148.859 275.858 148.632 276.185 148.469C276.518 148.306 276.886 148.224 277.288 148.224C277.941 148.224 278.453 148.397 278.824 148.742C279.201 149.082 279.389 149.546 279.389 150.137V153.181H278.626V152.493H278.588C278.45 152.725 278.243 152.923 277.966 153.086C277.69 153.25 277.379 153.331 277.033 153.331ZM277.109 152.625C277.379 152.625 277.63 152.556 277.862 152.417C278.095 152.279 278.28 152.094 278.418 151.861C278.557 151.629 278.626 151.375 278.626 151.098C278.475 150.998 278.29 150.916 278.07 150.853C277.85 150.79 277.617 150.759 277.372 150.759C276.933 150.759 276.6 150.85 276.374 151.032C276.154 151.214 276.044 151.45 276.044 151.739C276.044 152.003 276.144 152.216 276.345 152.38C276.546 152.543 276.801 152.625 277.109 152.625ZM280.503 146.434H281.304V153.181H280.503V146.434ZM282.491 146.434H283.292V153.181H282.491V146.434ZM288.78 155.367C288.214 155.367 287.746 155.235 287.376 154.971C287.011 154.707 286.766 154.39 286.641 154.019L287.366 153.708C287.473 153.985 287.649 154.208 287.894 154.377C288.145 154.553 288.44 154.641 288.78 154.641C289.276 154.641 289.659 154.497 289.929 154.208C290.206 153.919 290.344 153.51 290.344 152.983V152.446H290.306C290.149 152.691 289.926 152.892 289.637 153.049C289.355 153.2 289.031 153.275 288.667 153.275C288.252 153.275 287.872 153.168 287.526 152.955C287.187 152.741 286.917 152.443 286.716 152.059C286.515 151.676 286.414 151.239 286.414 150.749C286.414 150.266 286.515 149.832 286.716 149.449C286.917 149.06 287.187 148.758 287.526 148.544C287.872 148.331 288.252 148.224 288.667 148.224C289.031 148.224 289.355 148.303 289.637 148.46C289.926 148.61 290.149 148.811 290.306 149.063H290.344V148.375H291.107V152.992C291.107 153.765 290.894 154.352 290.466 154.754C290.039 155.163 289.477 155.367 288.78 155.367ZM288.78 152.549C289.069 152.549 289.329 152.477 289.562 152.333C289.801 152.188 289.989 151.981 290.127 151.711C290.272 151.441 290.344 151.12 290.344 150.749C290.344 150.373 290.272 150.049 290.127 149.779C289.989 149.509 289.801 149.305 289.562 149.166C289.329 149.022 289.069 148.95 288.78 148.95C288.491 148.95 288.227 149.022 287.988 149.166C287.749 149.311 287.558 149.518 287.413 149.788C287.275 150.058 287.206 150.379 287.206 150.749C287.206 151.12 287.275 151.444 287.413 151.72C287.558 151.99 287.749 152.198 287.988 152.342C288.227 152.48 288.491 152.549 288.78 152.549ZM294.46 153.331C293.989 153.331 293.565 153.218 293.188 152.992C292.811 152.766 292.516 152.458 292.302 152.069C292.095 151.679 291.991 151.249 291.991 150.778C291.991 150.307 292.095 149.876 292.302 149.487C292.516 149.097 292.811 148.789 293.188 148.563C293.565 148.337 293.989 148.224 294.46 148.224C294.931 148.224 295.355 148.337 295.732 148.563C296.109 148.789 296.401 149.097 296.608 149.487C296.822 149.876 296.929 150.307 296.929 150.778C296.929 151.249 296.822 151.679 296.608 152.069C296.401 152.458 296.109 152.766 295.732 152.992C295.355 153.218 294.931 153.331 294.46 153.331ZM294.46 152.606C294.755 152.606 295.029 152.534 295.28 152.389C295.537 152.238 295.742 152.025 295.892 151.748C296.049 151.472 296.128 151.148 296.128 150.778C296.128 150.407 296.049 150.084 295.892 149.807C295.742 149.531 295.537 149.32 295.28 149.176C295.029 149.025 294.755 148.95 294.46 148.95C294.165 148.95 293.888 149.025 293.631 149.176C293.373 149.32 293.166 149.531 293.009 149.807C292.858 150.084 292.783 150.407 292.783 150.778C292.783 151.148 292.858 151.472 293.009 151.748C293.166 152.025 293.373 152.238 293.631 152.389C293.888 152.534 294.165 152.606 294.46 152.606ZM299.395 153.331C299.043 153.331 298.729 153.262 298.453 153.124C298.176 152.986 297.963 152.797 297.812 152.559C297.661 152.314 297.586 152.037 297.586 151.729C297.586 151.221 297.777 150.825 298.161 150.542C298.544 150.253 299.027 150.109 299.612 150.109C299.901 150.109 300.168 150.14 300.413 150.203C300.664 150.266 300.856 150.338 300.987 150.42V150.128C300.987 149.769 300.862 149.484 300.611 149.27C300.359 149.05 300.042 148.94 299.659 148.94C299.389 148.94 299.141 149 298.914 149.119C298.688 149.232 298.509 149.393 298.377 149.6L297.774 149.148C297.963 148.859 298.22 148.632 298.547 148.469C298.88 148.306 299.247 148.224 299.649 148.224C300.303 148.224 300.815 148.397 301.185 148.742C301.562 149.082 301.751 149.546 301.751 150.137V153.181H300.987V152.493H300.95C300.812 152.725 300.604 152.923 300.328 153.086C300.051 153.25 299.74 153.331 299.395 153.331ZM299.47 152.625C299.74 152.625 299.992 152.556 300.224 152.417C300.457 152.279 300.642 152.094 300.78 151.861C300.918 151.629 300.987 151.375 300.987 151.098C300.837 150.998 300.651 150.916 300.432 150.853C300.212 150.79 299.979 150.759 299.734 150.759C299.294 150.759 298.961 150.85 298.735 151.032C298.515 151.214 298.406 151.45 298.406 151.739C298.406 152.003 298.506 152.216 298.707 152.38C298.908 152.543 299.163 152.625 299.47 152.625ZM302.865 146.434H303.666V153.181H302.865V146.434ZM306.484 153.331C305.969 153.331 305.539 153.212 305.193 152.973C304.848 152.728 304.603 152.417 304.458 152.04L305.174 151.72C305.294 152.009 305.47 152.232 305.702 152.389C305.941 152.546 306.201 152.625 306.484 152.625C306.786 152.625 307.043 152.565 307.257 152.446C307.47 152.32 307.577 152.144 307.577 151.918C307.577 151.717 307.492 151.557 307.323 151.437C307.153 151.312 306.886 151.205 306.522 151.117L305.938 150.966C305.554 150.872 305.24 150.712 304.995 150.486C304.75 150.259 304.628 149.967 304.628 149.609C304.628 149.333 304.709 149.091 304.873 148.884C305.042 148.67 305.265 148.507 305.542 148.394C305.818 148.281 306.117 148.224 306.437 148.224C306.858 148.224 307.232 148.315 307.558 148.497C307.891 148.68 308.127 148.934 308.265 149.261L307.568 149.581C307.354 149.154 306.974 148.94 306.428 148.94C306.164 148.94 305.931 149.003 305.73 149.129C305.535 149.248 305.438 149.402 305.438 149.59C305.438 149.766 305.507 149.911 305.645 150.024C305.784 150.131 305.991 150.219 306.267 150.288L306.965 150.467C307.436 150.586 307.791 150.765 308.029 151.004C308.268 151.236 308.388 151.522 308.388 151.861C308.388 152.157 308.303 152.417 308.133 152.644C307.964 152.863 307.734 153.033 307.445 153.152C307.156 153.272 306.836 153.331 306.484 153.331Z" fill="#6F767E"/>
<rect opacity="0.1" x="190.434" y="144.181" width="33.6543" height="33.6543" rx="6.73086" fill="#5843BE"/>
<path fill-rule="evenodd" clip-rule="evenodd" d="M207.396 165.315C206.208 165.315 205.242 164.349 205.242 163.161C205.242 161.974 206.208 161.008 207.396 161.008C208.584 161.008 209.55 161.974 209.55 163.161C209.55 164.349 208.584 165.315 207.396 165.315ZM207.396 159.93C205.614 159.93 204.165 161.379 204.165 163.161C204.165 164.943 205.614 166.392 207.396 166.392C209.177 166.392 210.626 164.943 210.626 163.161C210.626 161.379 209.177 159.93 207.396 159.93Z" fill="#5843BE"/>
<path fill-rule="evenodd" clip-rule="evenodd" d="M210.541 158.152C209.877 157.733 209.124 157.445 208.318 157.318L210.386 154.008H213.375L210.541 158.152ZM212.242 163.162C212.242 165.834 210.068 168.008 207.395 168.008C204.723 168.008 202.549 165.834 202.549 163.162C202.549 160.489 204.723 158.315 207.395 158.315C210.068 158.315 212.242 160.489 212.242 163.162ZM201.416 154.008H204.405L206.474 157.318C205.666 157.445 204.915 157.733 204.25 158.152L201.416 154.008ZM214.872 153.217C214.779 153.041 214.595 152.93 214.396 152.93H210.088C209.902 152.93 209.73 153.026 209.631 153.184L207.395 156.761L205.16 153.184C205.061 153.026 204.889 152.93 204.703 152.93H200.395C200.195 152.93 200.012 153.041 199.919 153.217C199.826 153.394 199.838 153.608 199.951 153.773L203.393 158.807C202.216 159.891 201.472 161.439 201.472 163.162C201.472 166.427 204.129 169.085 207.395 169.085C210.662 169.085 213.319 166.427 213.319 163.162C213.319 161.439 212.575 159.891 211.397 158.807L214.84 153.773C214.953 153.608 214.965 153.394 214.872 153.217Z" fill="#5843BE"/>
</svg>
